<svg xmlns="http://www.w3.org/2000/svg" xmlns:xlink="http://www.w3.org/1999/xlink" width="500" zoomAndPan="magnify" viewBox="0 0 375 374.999991" height="500" preserveAspectRatio="xMidYMid meet" version="1.0"><defs><clipPath id="0a348c5cca"><path d="M 0 80.625 L 375 80.625 L 375 294.375 L 0 294.375 Z M 0 80.625 " clip-rule="nonzero"/></clipPath></defs><g clip-path="url(#0a348c5cca)"><path fill="#000000" d="M 242.929688 273.886719 C 243.386719 274.027344 243.851562 274.15625 244.320312 274.277344 C 243.851562 274.15625 243.386719 274.027344 242.929688 273.886719 Z M 249.941406 275.648438 C 250.171875 275.695312 250.40625 275.738281 250.644531 275.785156 C 250.40625 275.738281 250.179688 275.695312 249.941406 275.648438 Z M 241.925781 273.589844 C 242.261719 273.691406 242.589844 273.796875 242.929688 273.894531 C 242.589844 273.789062 242.253906 273.691406 241.925781 273.589844 Z M 240.625 273.175781 C 241.054688 273.316406 241.488281 273.453125 241.925781 273.582031 C 241.488281 273.453125 241.054688 273.324219 240.625 273.175781 Z M 247.59375 275.128906 C 248.375 275.3125 249.152344 275.488281 249.941406 275.648438 C 249.152344 275.488281 248.375 275.3125 247.59375 275.128906 Z M 246.921875 274.960938 C 247.148438 275.011719 247.371094 275.074219 247.59375 275.128906 C 247.363281 275.074219 247.140625 275.011719 246.921875 274.960938 Z M 245.246094 274.539062 C 245.796875 274.683594 246.355469 274.820312 246.914062 274.960938 C 246.363281 274.820312 245.804688 274.683594 245.246094 274.539062 Z M 244.3125 274.285156 C 244.625 274.371094 244.933594 274.460938 245.246094 274.546875 C 244.9375 274.453125 244.625 274.371094 244.3125 274.285156 Z M 233.820312 270.667969 C 234.238281 270.84375 234.660156 271.019531 235.082031 271.1875 C 234.660156 271.019531 234.238281 270.84375 233.820312 270.667969 Z M 233.820312 270.667969 C 233.503906 270.539062 233.191406 270.410156 232.878906 270.277344 C 233.191406 270.410156 233.503906 270.539062 233.820312 270.667969 Z M 236.089844 271.570312 C 235.753906 271.441406 235.417969 271.320312 235.089844 271.179688 C 235.417969 271.320312 235.753906 271.449219 236.089844 271.570312 Z M 237.328125 272.046875 C 236.917969 271.890625 236.503906 271.738281 236.089844 271.578125 C 236.496094 271.730469 236.910156 271.890625 237.328125 272.046875 Z M 238.347656 272.414062 C 238.757812 272.558594 239.179688 272.703125 239.601562 272.847656 C 239.179688 272.703125 238.765625 272.558594 238.347656 272.414062 Z M 238.347656 272.414062 C 238.003906 272.289062 237.664062 272.167969 237.320312 272.046875 C 237.664062 272.167969 238.011719 272.289062 238.347656 272.414062 Z M 239.601562 272.839844 C 239.945312 272.957031 240.28125 273.070312 240.625 273.175781 C 240.28125 273.070312 239.945312 272.957031 239.601562 272.839844 Z M 253.269531 276.265625 C 253.765625 276.351562 254.261719 276.433594 254.765625 276.511719 C 254.261719 276.433594 253.765625 276.351562 253.269531 276.265625 Z M 265.726562 277.484375 C 265.453125 277.476562 265.183594 277.460938 264.910156 277.453125 C 265.183594 277.460938 265.460938 277.476562 265.726562 277.484375 Z M 263.21875 277.375 C 263.777344 277.40625 264.34375 277.429688 264.910156 277.453125 C 264.351562 277.429688 263.785156 277.40625 263.21875 277.375 Z M 252.34375 276.105469 C 251.777344 276.007812 251.210938 275.890625 250.644531 275.777344 C 251.210938 275.898438 251.777344 276.007812 252.34375 276.105469 Z M 212.371094 234.8125 C 212.953125 235.5 213.558594 236.175781 214.164062 236.839844 C 213.558594 236.175781 212.953125 235.5 212.371094 234.8125 Z M 265.726562 277.484375 C 266.570312 277.507812 267.410156 277.519531 268.25 277.519531 C 267.410156 277.519531 266.570312 277.507812 265.726562 277.484375 Z M 260.726562 277.207031 C 261.230469 277.253906 261.742188 277.285156 262.246094 277.324219 C 261.742188 277.285156 261.238281 277.246094 260.726562 277.207031 Z M 214.574219 237.289062 C 214.4375 237.144531 214.300781 236.992188 214.164062 236.839844 C 214.300781 236.992188 214.4375 237.136719 214.574219 237.289062 Z M 262.253906 277.316406 C 262.578125 277.335938 262.898438 277.359375 263.21875 277.375 C 262.898438 277.359375 262.578125 277.335938 262.253906 277.316406 Z M 232.878906 270.277344 C 232.378906 270.0625 231.890625 269.84375 231.402344 269.621094 C 231.890625 269.84375 232.378906 270.0625 232.878906 270.277344 Z M 260.726562 277.207031 C 260.390625 277.175781 260.042969 277.148438 259.707031 277.117188 C 260.050781 277.148438 260.390625 277.175781 260.726562 277.207031 Z M 255.769531 276.648438 C 255.433594 276.605469 255.105469 276.558594 254.773438 276.503906 C 255.097656 276.558594 255.433594 276.605469 255.769531 276.648438 Z M 253.269531 276.265625 C 252.960938 276.214844 252.648438 276.167969 252.34375 276.113281 C 252.648438 276.167969 252.960938 276.214844 253.269531 276.265625 Z M 258.246094 276.964844 C 258.738281 277.015625 259.226562 277.070312 259.714844 277.117188 C 259.21875 277.0625 258.730469 277.015625 258.246094 276.964844 Z M 255.769531 276.648438 C 256.25 276.71875 256.742188 276.78125 257.230469 276.839844 C 256.734375 276.789062 256.25 276.71875 255.769531 276.648438 Z M 258.246094 276.964844 C 257.902344 276.925781 257.566406 276.886719 257.222656 276.839844 C 257.566406 276.886719 257.902344 276.925781 258.246094 276.964844 Z M 216.472656 239.273438 C 215.820312 238.621094 215.195312 237.964844 214.574219 237.289062 C 215.195312 237.957031 215.828125 238.621094 216.472656 239.273438 Z M 209.160156 255.347656 C 209.480469 255.625 209.800781 255.90625 210.125 256.183594 C 209.800781 255.90625 209.480469 255.632812 209.160156 255.347656 Z M 207.417969 253.789062 C 207.730469 254.078125 208.042969 254.363281 208.355469 254.644531 C 208.042969 254.363281 207.730469 254.078125 207.417969 253.789062 Z M 210.941406 256.863281 C 210.667969 256.632812 210.398438 256.410156 210.125 256.183594 C 210.390625 256.410156 210.667969 256.632812 210.941406 256.863281 Z M 209.160156 255.347656 C 208.890625 255.121094 208.625 254.882812 208.363281 254.644531 C 208.625 254.882812 208.890625 255.121094 209.160156 255.347656 Z M 214.652344 259.769531 C 214.015625 259.296875 213.382812 258.8125 212.761719 258.324219 C 213.382812 258.8125 214.007812 259.296875 214.652344 259.769531 Z M 211.929688 257.675781 C 212.203125 257.894531 212.480469 258.109375 212.761719 258.332031 C 212.480469 258.109375 212.203125 257.894531 211.929688 257.675781 Z M 210.941406 256.863281 C 211.269531 257.128906 211.601562 257.40625 211.929688 257.675781 C 211.59375 257.40625 211.269531 257.128906 210.941406 256.863281 Z M 204.96875 251.457031 C 204.664062 251.148438 204.355469 250.851562 204.058594 250.546875 C 204.355469 250.851562 204.664062 251.15625 204.96875 251.457031 Z M 212.371094 234.8125 Z M 215.53125 260.425781 C 215.234375 260.214844 214.941406 259.992188 214.652344 259.769531 C 214.941406 259.992188 215.234375 260.214844 215.53125 260.425781 Z M 205.71875 252.191406 C 206.023438 252.488281 206.339844 252.777344 206.644531 253.070312 C 206.332031 252.777344 206.023438 252.488281 205.71875 252.191406 Z M 205.71875 252.191406 C 205.464844 251.945312 205.222656 251.699219 204.96875 251.457031 C 205.222656 251.699219 205.464844 251.945312 205.71875 252.191406 Z M 207.417969 253.789062 C 207.15625 253.550781 206.894531 253.304688 206.644531 253.070312 C 206.902344 253.3125 207.15625 253.550781 207.417969 253.789062 Z M 231.402344 269.621094 C 231.003906 269.4375 230.605469 269.261719 230.207031 269.070312 C 230.605469 269.261719 231.003906 269.445312 231.402344 269.621094 Z M 225.527344 266.714844 C 225.175781 266.523438 224.824219 266.332031 224.472656 266.140625 C 224.824219 266.332031 225.175781 266.523438 225.527344 266.714844 Z M 226.546875 267.257812 C 226.199219 267.082031 225.863281 266.890625 225.527344 266.714844 C 225.863281 266.898438 226.199219 267.082031 226.546875 267.257812 Z M 223.441406 265.550781 C 223.785156 265.75 224.121094 265.941406 224.464844 266.140625 C 224.128906 265.941406 223.785156 265.742188 223.441406 265.550781 Z M 223.441406 265.550781 C 223.101562 265.359375 222.765625 265.160156 222.429688 264.960938 C 222.765625 265.152344 223.101562 265.351562 223.441406 265.550781 Z M 226.546875 267.257812 C 226.917969 267.457031 227.300781 267.648438 227.683594 267.839844 C 227.300781 267.648438 226.917969 267.457031 226.546875 267.257812 Z M 230.207031 269.078125 C 229.6875 268.832031 229.160156 268.589844 228.648438 268.328125 C 229.160156 268.582031 229.6875 268.832031 230.207031 269.078125 Z M 227.683594 267.839844 C 228.003906 268 228.328125 268.167969 228.648438 268.328125 C 228.320312 268.167969 228.003906 268.007812 227.683594 267.839844 Z M 220.425781 263.730469 C 220.746094 263.9375 221.078125 264.136719 221.40625 264.335938 C 221.078125 264.136719 220.753906 263.9375 220.425781 263.730469 Z M 221.40625 264.34375 C 221.75 264.550781 222.085938 264.757812 222.429688 264.960938 C 222.085938 264.757812 221.75 264.550781 221.40625 264.34375 Z M 218.460938 262.453125 C 218.125 262.230469 217.78125 262.003906 217.449219 261.773438 C 217.789062 262.011719 218.125 262.230469 218.460938 262.453125 Z M 216.535156 261.132812 C 216.839844 261.34375 217.144531 261.566406 217.449219 261.773438 C 217.136719 261.566406 216.839844 261.34375 216.535156 261.132812 Z M 219.410156 263.082031 C 219.09375 262.875 218.773438 262.667969 218.460938 262.453125 C 218.773438 262.667969 219.085938 262.875 219.410156 263.082031 Z M 215.53125 260.425781 C 215.859375 260.664062 216.195312 260.902344 216.535156 261.132812 C 216.195312 260.894531 215.859375 260.664062 215.53125 260.425781 Z M 220.425781 263.730469 C 220.082031 263.515625 219.746094 263.304688 219.410156 263.082031 C 219.746094 263.304688 220.089844 263.515625 220.425781 263.730469 Z M 106.765625 114.265625 C 96.882812 114.265625 87.289062 116.203125 78.257812 120.027344 C 69.539062 123.710938 61.707031 128.988281 54.992188 135.710938 C 50.425781 140.277344 46.496094 145.394531 43.304688 150.933594 L 41.796875 153.542969 L 61.628906 153.542969 L 62.160156 152.867188 C 72.964844 138.964844 89.226562 130.992188 106.765625 130.992188 C 127.8125 130.992188 146.199219 142.566406 155.917969 159.675781 C 157.128906 154.796875 158.648438 149.992188 160.484375 145.3125 C 160.882812 144.300781 161.265625 143.355469 161.65625 142.429688 C 161.976562 141.671875 162.304688 140.914062 162.644531 140.164062 C 161.34375 138.625 159.972656 137.144531 158.535156 135.707031 C 151.8125 128.980469 143.980469 123.703125 135.261719 120.019531 C 126.238281 116.203125 116.644531 114.265625 106.765625 114.265625 Z M 23.816406 152.484375 C 37.980469 119.0625 70.535156 97.464844 106.765625 97.464844 C 131.957031 97.464844 154.765625 107.863281 171.117188 124.601562 C 174.03125 120.109375 177.257812 115.8125 180.753906 111.78125 C 180.953125 111.550781 181.152344 111.328125 181.351562 111.109375 C 171.753906 101.730469 160.648438 94.335938 148.316406 89.125 C 135.15625 83.550781 121.171875 80.730469 106.765625 80.730469 C 92.355469 80.730469 78.371094 83.550781 65.203125 89.125 C 52.492188 94.496094 41.070312 102.191406 31.273438 111.996094 C 21.46875 121.800781 13.765625 133.21875 8.398438 145.929688 C 7.671875 147.644531 6.976562 149.417969 6.324219 151.214844 L 5.484375 153.550781 L 23.375 153.550781 Z M 374.808594 180.753906 L 374.710938 179.125 L 259.882812 179.125 L 259.882812 221.128906 L 276.617188 221.128906 L 276.617188 195.859375 L 324.121094 195.859375 C 320.03125 223.433594 296.34375 243.984375 268.25 243.984375 C 247.210938 243.984375 228.816406 232.410156 219.09375 215.300781 C 217.886719 220.179688 216.363281 224.976562 214.53125 229.664062 C 214.117188 230.707031 213.742188 231.640625 213.367188 232.527344 C 213.046875 233.289062 212.710938 234.046875 212.371094 234.8125 C 212.953125 235.5 213.558594 236.175781 214.164062 236.839844 C 214.300781 236.992188 214.4375 237.136719 214.574219 237.289062 C 215.195312 237.957031 215.828125 238.621094 216.472656 239.273438 C 223.195312 245.996094 231.027344 251.273438 239.746094 254.957031 C 248.777344 258.78125 258.371094 260.71875 268.25 260.71875 C 278.132812 260.71875 287.722656 258.78125 296.757812 254.957031 C 305.476562 251.273438 313.308594 245.996094 320.03125 239.273438 C 326.746094 232.550781 332.03125 224.726562 335.71875 215.996094 C 338.441406 209.558594 340.214844 202.789062 341.003906 195.859375 L 357.890625 195.859375 C 353.636719 241.804688 314.617188 277.519531 268.25 277.519531 C 267.410156 277.519531 266.570312 277.507812 265.726562 277.484375 C 265.453125 277.476562 265.183594 277.460938 264.910156 277.453125 C 264.34375 277.429688 263.777344 277.40625 263.21875 277.375 C 262.898438 277.359375 262.578125 277.335938 262.253906 277.316406 C 261.742188 277.285156 261.238281 277.246094 260.734375 277.199219 C 260.398438 277.167969 260.050781 277.140625 259.714844 277.109375 C 259.226562 277.0625 258.738281 277.007812 258.246094 276.957031 C 257.902344 276.917969 257.566406 276.878906 257.222656 276.832031 C 256.734375 276.773438 256.25 276.710938 255.761719 276.640625 C 255.425781 276.597656 255.097656 276.550781 254.765625 276.496094 C 254.261719 276.421875 253.765625 276.335938 253.269531 276.25 C 252.960938 276.199219 252.648438 276.152344 252.34375 276.097656 C 251.777344 276 251.210938 275.882812 250.644531 275.769531 C 250.414062 275.722656 250.179688 275.679688 249.941406 275.632812 C 249.152344 275.472656 248.375 275.296875 247.59375 275.113281 C 247.363281 275.058594 247.140625 274.996094 246.921875 274.945312 C 246.363281 274.804688 245.804688 274.667969 245.253906 274.523438 C 244.9375 274.4375 244.632812 274.355469 244.320312 274.261719 C 243.851562 274.132812 243.394531 274.003906 242.929688 273.875 C 242.589844 273.773438 242.261719 273.675781 241.925781 273.566406 C 241.488281 273.4375 241.0625 273.300781 240.625 273.160156 C 240.28125 273.054688 239.945312 272.941406 239.601562 272.824219 C 239.179688 272.6875 238.765625 272.542969 238.347656 272.390625 C 238.003906 272.265625 237.664062 272.144531 237.320312 272.023438 C 236.910156 271.871094 236.496094 271.714844 236.082031 271.554688 C 235.746094 271.425781 235.410156 271.304688 235.082031 271.164062 C 234.660156 270.996094 234.238281 270.820312 233.820312 270.644531 C 233.503906 270.515625 233.191406 270.386719 232.878906 270.253906 C 232.378906 270.042969 231.890625 269.820312 231.402344 269.597656 C 231.003906 269.414062 230.605469 269.238281 230.207031 269.046875 C 229.6875 268.800781 229.160156 268.558594 228.648438 268.296875 C 228.328125 268.136719 228.003906 267.976562 227.683594 267.808594 C 227.300781 267.617188 226.917969 267.425781 226.546875 267.226562 C 226.199219 267.050781 225.863281 266.859375 225.527344 266.683594 C 225.175781 266.492188 224.824219 266.300781 224.472656 266.109375 C 224.128906 265.917969 223.785156 265.71875 223.449219 265.519531 C 223.109375 265.328125 222.773438 265.132812 222.4375 264.933594 C 222.09375 264.726562 221.75 264.519531 221.414062 264.3125 C 221.085938 264.113281 220.761719 263.90625 220.433594 263.707031 C 220.089844 263.496094 219.753906 263.28125 219.417969 263.058594 C 219.101562 262.851562 218.78125 262.644531 218.46875 262.429688 C 218.132812 262.210938 217.789062 261.980469 217.457031 261.75 C 217.152344 261.535156 216.847656 261.320312 216.539062 261.109375 C 216.203125 260.871094 215.867188 260.640625 215.539062 260.40625 C 215.242188 260.191406 214.949219 259.96875 214.660156 259.746094 C 214.023438 259.273438 213.390625 258.789062 212.769531 258.300781 C 212.496094 258.085938 212.210938 257.863281 211.9375 257.644531 C 211.609375 257.375 211.277344 257.101562 210.949219 256.832031 C 210.675781 256.601562 210.40625 256.382812 210.132812 256.152344 C 209.808594 255.875 209.488281 255.601562 209.167969 255.316406 C 208.898438 255.089844 208.632812 254.851562 208.371094 254.613281 C 208.058594 254.332031 207.738281 254.046875 207.433594 253.757812 C 207.171875 253.519531 206.910156 253.277344 206.660156 253.039062 C 206.34375 252.75 206.039062 252.449219 205.734375 252.160156 C 205.480469 251.914062 205.238281 251.671875 204.984375 251.425781 C 204.679688 251.121094 204.371094 250.820312 204.074219 250.515625 C 204.019531 250.460938 203.96875 250.40625 203.914062 250.355469 C 201.007812 254.835938 197.773438 259.140625 194.277344 263.171875 C 194.078125 263.402344 193.878906 263.625 193.679688 263.855469 C 203.277344 273.230469 214.382812 280.625 226.707031 285.835938 C 239.875 291.402344 253.855469 294.234375 268.265625 294.234375 C 282.675781 294.234375 296.65625 291.410156 309.828125 285.835938 C 322.539062 280.457031 333.957031 272.757812 343.765625 262.957031 C 353.570312 253.152344 361.261719 241.742188 366.640625 229.023438 C 371.328125 217.941406 374.082031 206.222656 374.824219 194.199219 C 374.960938 191.972656 375.03125 189.710938 375.03125 187.46875 C 375.015625 185.265625 374.945312 182.996094 374.808594 180.753906 Z M 206.214844 226.40625 C 207.261719 223.738281 208.195312 221.039062 209.015625 218.316406 C 211.644531 209.597656 212.519531 200.464844 211.898438 191.378906 C 211.8125 190.09375 211.769531 188.800781 211.769531 187.492188 C 211.769531 183.578125 212.171875 179.753906 212.929688 176.058594 C 218.230469 150.367188 241.023438 131 268.257812 131 C 285.796875 131 302.058594 138.972656 312.871094 152.875 L 313.390625 153.550781 L 333.222656 153.550781 L 331.726562 150.941406 C 328.535156 145.402344 324.605469 140.285156 320.039062 135.71875 C 313.308594 128.988281 305.476562 123.710938 296.757812 120.027344 C 287.722656 116.203125 278.132812 114.265625 268.25 114.265625 C 258.371094 114.265625 248.777344 116.203125 239.746094 120.027344 C 231.027344 123.710938 223.195312 128.988281 216.472656 135.710938 C 212.546875 139.636719 209.121094 143.941406 206.207031 148.578125 C 204.136719 151.882812 202.316406 155.355469 200.777344 158.988281 C 200.496094 159.652344 200.226562 160.324219 199.960938 161 C 197.289062 167.882812 196.257812 175.277344 196.65625 182.652344 C 196.738281 184.25 196.785156 185.863281 196.785156 187.484375 C 196.785156 191.539062 196.511719 195.523438 195.988281 199.4375 C 194.675781 209.3125 191.753906 218.683594 187.5 227.285156 C 184.65625 233.03125 181.21875 238.429688 177.265625 243.402344 C 160.761719 264.175781 135.285156 277.515625 106.75 277.515625 C 60.375 277.515625 21.363281 241.796875 17.109375 195.851562 L 33.996094 195.851562 C 34.785156 202.78125 36.558594 209.542969 39.28125 215.988281 C 42.976562 224.710938 48.253906 232.542969 54.976562 239.265625 C 61.699219 245.988281 69.523438 251.265625 78.25 254.949219 C 87.285156 258.773438 96.875 260.710938 106.757812 260.710938 C 116.636719 260.710938 126.230469 258.773438 135.261719 254.949219 C 143.980469 251.265625 151.8125 245.988281 158.535156 239.265625 C 162.460938 235.339844 165.886719 231.035156 168.800781 226.398438 C 170.871094 223.09375 172.691406 219.625 174.222656 215.988281 C 174.40625 215.554688 174.582031 215.125 174.757812 214.691406 C 177.59375 207.59375 178.75 199.953125 178.34375 192.320312 C 178.261719 190.71875 178.214844 189.105469 178.214844 187.484375 C 178.214844 183.429688 178.484375 179.4375 179.003906 175.53125 C 180.316406 165.65625 183.238281 156.285156 187.5 147.683594 C 190.34375 141.9375 193.78125 136.539062 197.734375 131.566406 C 214.238281 110.792969 239.714844 97.457031 268.242188 97.457031 C 304.464844 97.457031 337.027344 119.054688 351.191406 152.476562 L 351.640625 153.535156 L 369.53125 153.535156 L 368.691406 151.199219 C 368.039062 149.410156 367.34375 147.628906 366.617188 145.914062 C 361.242188 133.203125 353.546875 121.785156 343.742188 111.980469 C 333.945312 102.191406 322.523438 94.496094 309.8125 89.125 C 296.640625 83.550781 282.660156 80.730469 268.25 80.730469 C 253.84375 80.730469 239.859375 83.550781 226.691406 89.125 C 213.980469 94.503906 202.558594 102.199219 192.753906 112.003906 C 190.933594 113.824219 189.183594 115.703125 187.507812 117.640625 C 183.707031 122.023438 180.296875 126.671875 177.273438 131.582031 C 174.460938 136.15625 171.988281 140.945312 169.878906 145.9375 C 169.503906 146.816406 169.144531 147.699219 168.800781 148.585938 C 167.75 151.246094 166.820312 153.945312 166 156.667969 C 163.371094 165.386719 162.496094 174.527344 163.117188 183.613281 C 163.199219 184.898438 163.246094 186.191406 163.246094 187.5 C 163.246094 191.414062 162.847656 195.238281 162.085938 198.925781 C 156.785156 224.617188 133.992188 243.992188 106.757812 243.992188 C 78.664062 243.992188 54.976562 223.441406 50.882812 195.867188 L 98.390625 195.867188 L 98.390625 221.136719 L 115.125 221.136719 L 115.125 179.132812 L 0.3125 179.132812 L 0.214844 180.761719 C 0.078125 183.003906 0.0078125 185.273438 0.0078125 187.5 C 0.0078125 189.75 0.078125 192.011719 0.214844 194.230469 C 0.957031 206.253906 3.710938 217.972656 8.398438 229.054688 C 13.773438 241.765625 21.476562 253.183594 31.273438 262.988281 C 41.078125 272.792969 52.492188 280.488281 65.210938 285.867188 C 78.378906 291.433594 92.371094 294.265625 106.769531 294.265625 C 121.179688 294.265625 135.164062 291.441406 148.332031 285.867188 C 161.042969 280.488281 172.464844 272.785156 182.269531 262.988281 C 184.097656 261.167969 185.839844 259.289062 187.523438 257.351562 C 191.316406 252.96875 194.734375 248.320312 197.757812 243.410156 C 200.570312 238.835938 203.042969 234.046875 205.152344 229.054688 C 205.503906 228.175781 205.863281 227.285156 206.214844 226.40625 Z M 206.214844 226.40625 " fill-opacity="1" fill-rule="nonzero"/></g></svg>