<svg xmlns="http://www.w3.org/2000/svg" xmlns:xlink="http://www.w3.org/1999/xlink" width="500" zoomAndPan="magnify" viewBox="0 0 375 213.75" height="285" preserveAspectRatio="xMidYMid meet" version="1.0"><defs><clipPath id="74439d1150"><path d="M 0.21875 0 L 374.78125 0 L 374.78125 213.5 L 0.21875 213.5 Z M 0.21875 0 " clip-rule="nonzero"/></clipPath></defs><g clip-path="url(#74439d1150)"><path fill="#000000" d="M 242.863281 193.039062 C 243.320312 193.175781 243.789062 193.304688 244.253906 193.425781 C 243.789062 193.304688 243.320312 193.175781 242.863281 193.039062 Z M 249.867188 194.792969 C 250.097656 194.839844 250.335938 194.886719 250.570312 194.933594 C 250.335938 194.886719 250.105469 194.839844 249.867188 194.792969 Z M 241.863281 192.738281 C 242.199219 192.839844 242.527344 192.945312 242.863281 193.046875 C 242.527344 192.9375 242.191406 192.839844 241.863281 192.738281 Z M 240.5625 192.328125 C 240.992188 192.464844 241.425781 192.601562 241.863281 192.730469 C 241.425781 192.601562 240.992188 192.472656 240.5625 192.328125 Z M 247.523438 194.273438 C 248.300781 194.457031 249.082031 194.632812 249.867188 194.792969 C 249.082031 194.632812 248.300781 194.457031 247.523438 194.273438 Z M 246.851562 194.105469 C 247.078125 194.160156 247.300781 194.222656 247.523438 194.273438 C 247.292969 194.222656 247.074219 194.160156 246.851562 194.105469 Z M 245.179688 193.6875 C 245.726562 193.832031 246.285156 193.96875 246.84375 194.105469 C 246.292969 193.96875 245.734375 193.832031 245.179688 193.6875 Z M 244.246094 193.433594 C 244.558594 193.519531 244.863281 193.609375 245.179688 193.695312 C 244.871094 193.601562 244.558594 193.519531 244.246094 193.433594 Z M 233.765625 189.820312 C 234.183594 189.996094 234.605469 190.171875 235.023438 190.339844 C 234.605469 190.171875 234.183594 189.996094 233.765625 189.820312 Z M 233.765625 189.820312 C 233.453125 189.691406 233.136719 189.5625 232.824219 189.433594 C 233.136719 189.5625 233.453125 189.691406 233.765625 189.820312 Z M 236.035156 190.722656 C 235.695312 190.59375 235.359375 190.472656 235.03125 190.332031 C 235.359375 190.472656 235.695312 190.601562 236.035156 190.722656 Z M 237.269531 191.195312 C 236.859375 191.042969 236.445312 190.890625 236.035156 190.730469 C 236.4375 190.882812 236.851562 191.042969 237.269531 191.195312 Z M 238.285156 191.5625 C 238.699219 191.707031 239.121094 191.855469 239.539062 192 C 239.121094 191.855469 238.707031 191.707031 238.285156 191.5625 Z M 238.285156 191.5625 C 237.941406 191.441406 237.605469 191.320312 237.261719 191.195312 C 237.605469 191.320312 237.949219 191.441406 238.285156 191.5625 Z M 239.539062 191.992188 C 239.882812 192.105469 240.21875 192.21875 240.5625 192.328125 C 240.21875 192.21875 239.882812 192.105469 239.539062 191.992188 Z M 253.191406 195.414062 C 253.6875 195.496094 254.183594 195.582031 254.6875 195.65625 C 254.183594 195.582031 253.6875 195.496094 253.191406 195.414062 Z M 265.636719 196.628906 C 265.359375 196.621094 265.09375 196.605469 264.820312 196.597656 C 265.09375 196.605469 265.367188 196.621094 265.636719 196.628906 Z M 263.128906 196.519531 C 263.6875 196.550781 264.253906 196.574219 264.820312 196.597656 C 264.261719 196.574219 263.695312 196.550781 263.128906 196.519531 Z M 252.265625 195.253906 C 251.703125 195.152344 251.136719 195.039062 250.570312 194.925781 C 251.136719 195.046875 251.703125 195.152344 252.265625 195.253906 Z M 212.34375 154.007812 C 212.925781 154.695312 213.527344 155.367188 214.132812 156.03125 C 213.527344 155.367188 212.925781 154.695312 212.34375 154.007812 Z M 265.636719 196.628906 C 266.476562 196.652344 267.316406 196.667969 268.15625 196.667969 C 267.316406 196.667969 266.476562 196.652344 265.636719 196.628906 Z M 260.640625 196.351562 C 261.144531 196.398438 261.65625 196.429688 262.160156 196.46875 C 261.65625 196.429688 261.152344 196.390625 260.640625 196.351562 Z M 214.542969 156.484375 C 214.40625 156.335938 214.269531 156.183594 214.132812 156.03125 C 214.269531 156.183594 214.40625 156.332031 214.542969 156.484375 Z M 262.167969 196.460938 C 262.488281 196.484375 262.808594 196.507812 263.128906 196.519531 C 262.808594 196.507812 262.488281 196.484375 262.167969 196.460938 Z M 232.824219 189.433594 C 232.328125 189.21875 231.839844 188.996094 231.351562 188.773438 C 231.839844 188.996094 232.328125 189.21875 232.824219 189.433594 Z M 260.640625 196.351562 C 260.304688 196.324219 259.960938 196.292969 259.625 196.261719 C 259.96875 196.292969 260.304688 196.324219 260.640625 196.351562 Z M 255.691406 195.796875 C 255.355469 195.75 255.023438 195.703125 254.695312 195.648438 C 255.015625 195.703125 255.355469 195.75 255.691406 195.796875 Z M 253.191406 195.414062 C 252.886719 195.359375 252.574219 195.3125 252.265625 195.261719 C 252.574219 195.3125 252.886719 195.359375 253.191406 195.414062 Z M 258.164062 196.109375 C 258.652344 196.164062 259.144531 196.214844 259.632812 196.261719 C 259.136719 196.207031 258.644531 196.164062 258.164062 196.109375 Z M 255.691406 195.796875 C 256.171875 195.863281 256.660156 195.925781 257.148438 195.988281 C 256.652344 195.933594 256.171875 195.863281 255.691406 195.796875 Z M 258.164062 196.109375 C 257.820312 196.070312 257.484375 196.03125 257.140625 195.988281 C 257.484375 196.03125 257.820312 196.070312 258.164062 196.109375 Z M 216.4375 158.460938 C 215.789062 157.8125 215.164062 157.15625 214.542969 156.484375 C 215.164062 157.148438 215.796875 157.8125 216.4375 158.460938 Z M 209.136719 174.519531 C 209.457031 174.792969 209.777344 175.078125 210.097656 175.351562 C 209.777344 175.078125 209.457031 174.800781 209.136719 174.519531 Z M 207.394531 172.960938 C 207.707031 173.25 208.019531 173.535156 208.332031 173.816406 C 208.019531 173.535156 207.707031 173.25 207.394531 172.960938 Z M 210.914062 176.03125 C 210.640625 175.804688 210.371094 175.582031 210.097656 175.351562 C 210.363281 175.582031 210.640625 175.804688 210.914062 176.03125 Z M 209.136719 174.519531 C 208.867188 174.289062 208.601562 174.054688 208.339844 173.816406 C 208.601562 174.054688 208.867188 174.289062 209.136719 174.519531 Z M 214.621094 178.933594 C 213.984375 178.460938 213.351562 177.980469 212.734375 177.492188 C 213.351562 177.980469 213.976562 178.460938 214.621094 178.933594 Z M 211.898438 176.84375 C 212.175781 177.0625 212.449219 177.277344 212.734375 177.5 C 212.449219 177.277344 212.175781 177.0625 211.898438 176.84375 Z M 210.914062 176.03125 C 211.242188 176.300781 211.570312 176.574219 211.898438 176.84375 C 211.5625 176.574219 211.242188 176.300781 210.914062 176.03125 Z M 204.949219 170.632812 C 204.644531 170.324219 204.335938 170.027344 204.039062 169.722656 C 204.335938 170.027344 204.644531 170.332031 204.949219 170.632812 Z M 212.34375 154.007812 Z M 215.5 179.59375 C 215.199219 179.378906 214.910156 179.15625 214.621094 178.933594 C 214.910156 179.15625 215.199219 179.378906 215.5 179.59375 Z M 205.695312 171.363281 C 206.003906 171.664062 206.316406 171.953125 206.621094 172.242188 C 206.308594 171.953125 206.003906 171.664062 205.695312 171.363281 Z M 205.695312 171.363281 C 205.445312 171.121094 205.199219 170.875 204.949219 170.632812 C 205.199219 170.875 205.445312 171.121094 205.695312 171.363281 Z M 207.394531 172.960938 C 207.132812 172.722656 206.875 172.480469 206.621094 172.242188 C 206.882812 172.488281 207.132812 172.722656 207.394531 172.960938 Z M 231.351562 188.773438 C 230.953125 188.589844 230.554688 188.414062 230.160156 188.226562 C 230.554688 188.414062 230.953125 188.597656 231.351562 188.773438 Z M 225.484375 185.871094 C 225.132812 185.679688 224.78125 185.488281 224.429688 185.300781 C 224.78125 185.488281 225.132812 185.679688 225.484375 185.871094 Z M 226.5 186.414062 C 226.15625 186.238281 225.820312 186.046875 225.484375 185.871094 C 225.820312 186.054688 226.15625 186.238281 226.5 186.414062 Z M 223.398438 184.710938 C 223.742188 184.910156 224.078125 185.101562 224.421875 185.300781 C 224.085938 185.101562 223.742188 184.902344 223.398438 184.710938 Z M 223.398438 184.710938 C 223.0625 184.519531 222.726562 184.320312 222.390625 184.121094 C 222.726562 184.3125 223.0625 184.511719 223.398438 184.710938 Z M 226.5 186.414062 C 226.875 186.613281 227.253906 186.804688 227.636719 186.996094 C 227.253906 186.804688 226.875 186.613281 226.5 186.414062 Z M 230.160156 188.234375 C 229.640625 187.988281 229.113281 187.742188 228.601562 187.484375 C 229.113281 187.734375 229.640625 187.988281 230.160156 188.234375 Z M 227.636719 186.996094 C 227.957031 187.15625 228.28125 187.324219 228.601562 187.484375 C 228.273438 187.324219 227.957031 187.164062 227.636719 186.996094 Z M 220.386719 182.890625 C 220.707031 183.097656 221.039062 183.296875 221.367188 183.496094 C 221.039062 183.296875 220.714844 183.097656 220.386719 182.890625 Z M 221.367188 183.503906 C 221.710938 183.710938 222.046875 183.917969 222.390625 184.121094 C 222.046875 183.917969 221.710938 183.710938 221.367188 183.503906 Z M 218.425781 181.617188 C 218.089844 181.394531 217.746094 181.164062 217.417969 180.9375 C 217.753906 181.171875 218.089844 181.394531 218.425781 181.617188 Z M 216.5 180.296875 C 216.804688 180.507812 217.109375 180.730469 217.417969 180.9375 C 217.101562 180.730469 216.804688 180.507812 216.5 180.296875 Z M 219.371094 182.242188 C 219.058594 182.035156 218.738281 181.832031 218.425781 181.617188 C 218.738281 181.832031 219.050781 182.035156 219.371094 182.242188 Z M 215.5 179.59375 C 215.828125 179.828125 216.164062 180.066406 216.5 180.296875 C 216.164062 180.058594 215.828125 179.828125 215.5 179.59375 Z M 220.386719 182.890625 C 220.042969 182.679688 219.707031 182.464844 219.371094 182.242188 C 219.707031 182.464844 220.050781 182.679688 220.386719 182.890625 Z M 106.859375 33.601562 C 96.988281 33.601562 87.40625 35.535156 78.386719 39.355469 C 69.675781 43.039062 61.855469 48.308594 55.148438 55.023438 C 50.585938 59.585938 46.660156 64.695312 43.472656 70.226562 L 41.96875 72.832031 L 61.777344 72.832031 L 62.304688 72.160156 C 73.097656 58.269531 89.339844 50.308594 106.859375 50.308594 C 127.882812 50.308594 146.246094 61.867188 155.957031 78.957031 C 157.164062 74.082031 158.683594 69.285156 160.515625 64.609375 C 160.914062 63.601562 161.296875 62.65625 161.6875 61.730469 C 162.007812 60.976562 162.335938 60.21875 162.671875 59.46875 C 161.375 57.933594 160.003906 56.453125 158.570312 55.015625 C 151.855469 48.300781 144.03125 43.03125 135.324219 39.347656 C 126.308594 35.535156 116.726562 33.601562 106.859375 33.601562 Z M 24.007812 71.777344 C 38.15625 38.390625 70.671875 16.820312 106.859375 16.820312 C 132.023438 16.820312 154.804688 27.207031 171.136719 43.921875 C 174.046875 39.4375 177.269531 35.144531 180.761719 31.121094 C 180.960938 30.890625 181.160156 30.667969 181.359375 30.449219 C 171.769531 21.082031 160.679688 13.695312 148.363281 8.492188 C 135.214844 2.921875 121.25 0.105469 106.859375 0.105469 C 92.464844 0.105469 78.5 2.921875 65.34375 8.492188 C 52.648438 13.855469 41.242188 21.539062 31.457031 31.332031 C 21.664062 41.128906 13.96875 52.53125 8.605469 65.230469 C 7.882812 66.941406 7.1875 68.714844 6.535156 70.507812 L 5.695312 72.839844 L 23.566406 72.839844 Z M 374.589844 100.011719 L 374.492188 98.386719 L 259.800781 98.386719 L 259.800781 140.339844 L 276.515625 140.339844 L 276.515625 115.101562 L 323.964844 115.101562 C 319.875 142.640625 296.21875 163.167969 268.15625 163.167969 C 247.140625 163.167969 228.769531 151.609375 219.058594 134.519531 C 217.851562 139.394531 216.332031 144.183594 214.496094 148.867188 C 214.085938 149.90625 213.710938 150.835938 213.335938 151.722656 C 213.015625 152.488281 212.679688 153.242188 212.34375 154.007812 C 212.925781 154.695312 213.527344 155.367188 214.132812 156.03125 C 214.269531 156.183594 214.40625 156.332031 214.542969 156.484375 C 215.164062 157.148438 215.796875 157.8125 216.4375 158.460938 C 223.152344 165.175781 230.976562 170.449219 239.683594 174.128906 C 248.707031 177.949219 258.289062 179.882812 268.15625 179.882812 C 278.027344 179.882812 287.605469 177.949219 296.628906 174.128906 C 305.339844 170.449219 313.160156 165.175781 319.875 158.460938 C 326.582031 151.746094 331.863281 143.929688 335.542969 135.214844 C 338.265625 128.78125 340.035156 122.019531 340.824219 115.101562 L 357.691406 115.101562 C 353.445312 160.988281 314.46875 196.667969 268.15625 196.667969 C 267.316406 196.667969 266.476562 196.652344 265.636719 196.628906 C 265.359375 196.621094 265.09375 196.605469 264.820312 196.597656 C 264.253906 196.574219 263.6875 196.550781 263.128906 196.519531 C 262.808594 196.507812 262.488281 196.484375 262.167969 196.460938 C 261.65625 196.429688 261.152344 196.390625 260.648438 196.34375 C 260.3125 196.316406 259.96875 196.285156 259.632812 196.253906 C 259.144531 196.207031 258.652344 196.15625 258.164062 196.101562 C 257.820312 196.0625 257.484375 196.023438 257.140625 195.980469 C 256.652344 195.917969 256.171875 195.855469 255.683594 195.789062 C 255.347656 195.742188 255.015625 195.695312 254.6875 195.644531 C 254.183594 195.566406 253.6875 195.480469 253.191406 195.398438 C 252.886719 195.34375 252.574219 195.300781 252.265625 195.246094 C 251.703125 195.144531 251.136719 195.03125 250.570312 194.917969 C 250.34375 194.871094 250.105469 194.824219 249.867188 194.78125 C 249.082031 194.617188 248.300781 194.441406 247.523438 194.261719 C 247.292969 194.207031 247.074219 194.144531 246.851562 194.09375 C 246.292969 193.953125 245.734375 193.816406 245.183594 193.671875 C 244.871094 193.585938 244.566406 193.503906 244.253906 193.410156 C 243.789062 193.28125 243.328125 193.152344 242.863281 193.023438 C 242.527344 192.921875 242.199219 192.824219 241.863281 192.71875 C 241.425781 192.585938 241 192.449219 240.5625 192.3125 C 240.21875 192.203125 239.882812 192.089844 239.539062 191.976562 C 239.121094 191.839844 238.707031 191.691406 238.285156 191.539062 C 237.941406 191.417969 237.605469 191.296875 237.261719 191.171875 C 236.851562 191.019531 236.4375 190.867188 236.027344 190.707031 C 235.691406 190.578125 235.351562 190.457031 235.023438 190.316406 C 234.605469 190.148438 234.183594 189.972656 233.765625 189.796875 C 233.453125 189.667969 233.136719 189.539062 232.824219 189.410156 C 232.328125 189.195312 231.839844 188.972656 231.351562 188.753906 C 230.953125 188.570312 230.554688 188.394531 230.160156 188.203125 C 229.640625 187.957031 229.113281 187.714844 228.601562 187.453125 C 228.28125 187.292969 227.957031 187.132812 227.636719 186.964844 C 227.253906 186.773438 226.875 186.582031 226.5 186.382812 C 226.15625 186.207031 225.820312 186.015625 225.484375 185.839844 C 225.132812 185.648438 224.78125 185.460938 224.429688 185.269531 C 224.085938 185.078125 223.742188 184.878906 223.40625 184.679688 C 223.070312 184.488281 222.734375 184.289062 222.398438 184.09375 C 222.054688 183.886719 221.710938 183.679688 221.375 183.472656 C 221.042969 183.273438 220.722656 183.066406 220.394531 182.871094 C 220.050781 182.65625 219.714844 182.441406 219.378906 182.21875 C 219.066406 182.015625 218.746094 181.808594 218.433594 181.59375 C 218.097656 181.371094 217.753906 181.144531 217.421875 180.914062 C 217.117188 180.699219 216.8125 180.484375 216.507812 180.273438 C 216.171875 180.035156 215.835938 179.804688 215.507812 179.570312 C 215.207031 179.355469 214.917969 179.132812 214.628906 178.914062 C 213.992188 178.4375 213.359375 177.957031 212.742188 177.46875 C 212.464844 177.253906 212.183594 177.03125 211.90625 176.8125 C 211.578125 176.542969 211.25 176.269531 210.921875 176 C 210.648438 175.773438 210.378906 175.550781 210.105469 175.320312 C 209.785156 175.046875 209.464844 174.773438 209.144531 174.488281 C 208.875 174.261719 208.609375 174.023438 208.347656 173.785156 C 208.035156 173.503906 207.714844 173.222656 207.410156 172.929688 C 207.148438 172.695312 206.890625 172.449219 206.636719 172.210938 C 206.324219 171.921875 206.019531 171.625 205.710938 171.335938 C 205.460938 171.089844 205.214844 170.84375 204.964844 170.601562 C 204.660156 170.296875 204.351562 169.996094 204.054688 169.691406 C 204 169.636719 203.949219 169.585938 203.894531 169.53125 C 200.992188 174.007812 197.761719 178.308594 194.269531 182.335938 C 194.070312 182.5625 193.871094 182.785156 193.671875 183.015625 C 203.261719 192.378906 214.351562 199.769531 226.660156 204.96875 C 239.816406 210.53125 253.78125 213.359375 268.171875 213.359375 C 282.566406 213.359375 296.53125 210.539062 309.683594 204.96875 C 322.382812 199.601562 333.789062 191.90625 343.582031 182.121094 C 353.375 172.328125 361.058594 160.929688 366.429688 148.226562 C 371.113281 137.15625 373.863281 125.453125 374.605469 113.441406 C 374.742188 111.21875 374.8125 108.957031 374.8125 106.71875 C 374.796875 104.519531 374.726562 102.25 374.589844 100.011719 Z M 206.195312 145.613281 C 207.242188 142.945312 208.171875 140.25 208.988281 137.53125 C 211.617188 128.820312 212.488281 119.699219 211.871094 110.625 C 211.785156 109.339844 211.738281 108.050781 211.738281 106.742188 C 211.738281 102.832031 212.144531 99.011719 212.902344 95.320312 C 218.195312 69.660156 240.960938 50.316406 268.164062 50.316406 C 285.683594 50.316406 301.921875 58.277344 312.726562 72.167969 L 313.246094 72.839844 L 333.054688 72.839844 L 331.558594 70.234375 C 328.371094 64.703125 324.445312 59.59375 319.882812 55.03125 C 313.160156 48.308594 305.339844 43.039062 296.628906 39.355469 C 287.605469 35.535156 278.027344 33.601562 268.15625 33.601562 C 258.285156 33.601562 248.707031 35.535156 239.683594 39.355469 C 230.976562 43.039062 223.152344 48.308594 216.4375 55.023438 C 212.519531 58.941406 209.097656 63.242188 206.1875 67.871094 C 204.117188 71.171875 202.296875 74.640625 200.761719 78.269531 C 200.480469 78.933594 200.210938 79.605469 199.945312 80.28125 C 197.277344 87.15625 196.246094 94.542969 196.644531 101.90625 C 196.726562 103.503906 196.773438 105.117188 196.773438 106.734375 C 196.773438 110.785156 196.5 114.765625 195.980469 118.675781 C 194.664062 128.539062 191.746094 137.894531 187.5 146.492188 C 184.65625 152.226562 181.226562 157.621094 177.277344 162.585938 C 160.792969 183.335938 135.34375 196.660156 106.84375 196.660156 C 60.523438 196.660156 21.554688 160.984375 17.308594 115.09375 L 34.175781 115.09375 C 34.964844 122.015625 36.734375 128.765625 39.457031 135.207031 C 43.144531 143.917969 48.417969 151.738281 55.132812 158.453125 C 61.847656 165.167969 69.660156 170.441406 78.378906 174.121094 C 87.398438 177.941406 96.980469 179.875 106.851562 179.875 C 116.71875 179.875 126.300781 177.941406 135.324219 174.121094 C 144.03125 170.441406 151.855469 165.167969 158.570312 158.453125 C 162.488281 154.535156 165.910156 150.234375 168.820312 145.605469 C 170.890625 142.304688 172.710938 138.835938 174.238281 135.207031 C 174.421875 134.773438 174.597656 134.34375 174.773438 133.910156 C 177.605469 126.820312 178.761719 119.1875 178.355469 111.5625 C 178.273438 109.964844 178.226562 108.355469 178.226562 106.734375 C 178.226562 102.6875 178.492188 98.699219 179.011719 94.792969 C 180.328125 84.933594 183.246094 75.574219 187.5 66.980469 C 190.34375 61.242188 193.773438 55.847656 197.722656 50.882812 C 214.207031 30.132812 239.65625 16.8125 268.148438 16.8125 C 304.328125 16.8125 336.851562 38.386719 351 71.769531 L 351.449219 72.824219 L 369.320312 72.824219 L 368.476562 70.492188 C 367.828125 68.707031 367.132812 66.925781 366.40625 65.214844 C 361.039062 52.519531 353.351562 41.113281 343.558594 31.316406 C 333.773438 21.539062 322.367188 13.855469 309.671875 8.492188 C 296.515625 2.921875 282.550781 0.105469 268.15625 0.105469 C 253.765625 0.105469 239.800781 2.921875 226.644531 8.492188 C 213.949219 13.863281 202.542969 21.546875 192.75 31.339844 C 190.929688 33.160156 189.179688 35.039062 187.507812 36.972656 C 183.710938 41.347656 180.304688 45.992188 177.285156 50.898438 C 174.476562 55.464844 172.007812 60.25 169.898438 65.238281 C 169.523438 66.117188 169.164062 66.996094 168.820312 67.878906 C 167.773438 70.539062 166.84375 73.234375 166.027344 75.957031 C 163.398438 84.664062 162.527344 93.792969 163.144531 102.871094 C 163.230469 104.152344 163.273438 105.445312 163.273438 106.75 C 163.273438 110.660156 162.878906 114.480469 162.113281 118.164062 C 156.820312 143.824219 134.054688 163.175781 106.851562 163.175781 C 78.789062 163.175781 55.132812 142.648438 51.042969 115.109375 L 98.492188 115.109375 L 98.492188 140.347656 L 115.207031 140.347656 L 115.207031 98.394531 L 0.53125 98.394531 L 0.433594 100.019531 C 0.296875 102.257812 0.226562 104.527344 0.226562 106.75 C 0.226562 108.996094 0.296875 111.257812 0.433594 113.472656 C 1.175781 125.480469 3.925781 137.1875 8.605469 148.253906 C 13.976562 160.953125 21.671875 172.359375 31.457031 182.152344 C 41.25 191.945312 52.648438 199.628906 65.351562 205 C 78.507812 210.5625 92.480469 213.390625 106.867188 213.390625 C 121.257812 213.390625 135.222656 210.570312 148.378906 205 C 161.074219 199.628906 172.480469 191.9375 182.273438 182.152344 C 184.101562 180.332031 185.84375 178.453125 187.523438 176.519531 C 191.3125 172.144531 194.726562 167.5 197.746094 162.59375 C 200.554688 158.027344 203.023438 153.242188 205.132812 148.253906 C 205.484375 147.375 205.84375 146.492188 206.195312 145.613281 Z M 206.195312 145.613281 " fill-opacity="1" fill-rule="nonzero"/></g></svg>