<svg xmlns="http://www.w3.org/2000/svg" xmlns:xlink="http://www.w3.org/1999/xlink" width="500" zoomAndPan="magnify" viewBox="0 0 375 374.999991" height="500" preserveAspectRatio="xMidYMid meet" version="1.0"><defs><g/><clipPath id="c7227cb8bd"><path d="M 37.5 102 L 337.5 102 L 337.5 273 L 37.5 273 Z M 37.5 102 " clip-rule="nonzero"/></clipPath><clipPath id="4cb0fe04b2"><path d="M 146 260.789062 L 273.660156 260.789062 L 273.660156 344.53125 L 146 344.53125 Z M 146 260.789062 " clip-rule="nonzero"/></clipPath><clipPath id="c3a99f0381"><path d="M 101.160156 260.789062 L 229 260.789062 L 229 344.53125 L 101.160156 344.53125 Z M 101.160156 260.789062 " clip-rule="nonzero"/></clipPath></defs><rect x="-37.5" width="450" fill="#ffffff" y="-37.499999" height="449.999989" fill-opacity="1"/><rect x="-37.5" width="450" fill="#000000" y="-37.499999" height="449.999989" fill-opacity="1"/><g clip-path="url(#c7227cb8bd)"><path fill="#ffffff" d="M 231.84375 256.609375 C 232.210938 256.722656 232.582031 256.824219 232.957031 256.921875 C 232.582031 256.824219 232.210938 256.722656 231.84375 256.609375 Z M 237.453125 258.019531 C 237.636719 258.054688 237.828125 258.089844 238.015625 258.128906 C 237.828125 258.089844 237.644531 258.054688 237.453125 258.019531 Z M 231.039062 256.371094 C 231.308594 256.453125 231.574219 256.539062 231.84375 256.617188 C 231.574219 256.53125 231.304688 256.453125 231.039062 256.371094 Z M 230 256.042969 C 230.34375 256.152344 230.691406 256.261719 231.039062 256.367188 C 230.691406 256.261719 230.34375 256.15625 230 256.042969 Z M 235.574219 257.601562 C 236.199219 257.75 236.824219 257.890625 237.453125 258.019531 C 236.824219 257.890625 236.199219 257.75 235.574219 257.601562 Z M 235.035156 257.46875 C 235.21875 257.511719 235.398438 257.558594 235.574219 257.601562 C 235.390625 257.558594 235.214844 257.511719 235.035156 257.46875 Z M 233.695312 257.128906 C 234.136719 257.246094 234.582031 257.355469 235.03125 257.46875 C 234.589844 257.355469 234.144531 257.246094 233.695312 257.128906 Z M 232.949219 256.929688 C 233.199219 256.996094 233.445312 257.070312 233.695312 257.136719 C 233.453125 257.0625 233.199219 256.996094 232.949219 256.929688 Z M 224.554688 254.035156 C 224.890625 254.175781 225.226562 254.316406 225.5625 254.449219 C 225.226562 254.316406 224.890625 254.175781 224.554688 254.035156 Z M 224.554688 254.035156 C 224.304688 253.929688 224.054688 253.828125 223.800781 253.722656 C 224.054688 253.828125 224.304688 253.929688 224.554688 254.035156 Z M 226.371094 254.757812 C 226.101562 254.652344 225.832031 254.554688 225.570312 254.445312 C 225.832031 254.554688 226.101562 254.660156 226.371094 254.757812 Z M 227.363281 255.136719 C 227.03125 255.015625 226.703125 254.890625 226.371094 254.761719 C 226.695312 254.886719 227.027344 255.015625 227.363281 255.136719 Z M 228.175781 255.429688 C 228.507812 255.546875 228.84375 255.664062 229.179688 255.777344 C 228.84375 255.664062 228.511719 255.546875 228.175781 255.429688 Z M 228.175781 255.429688 C 227.902344 255.332031 227.632812 255.234375 227.355469 255.136719 C 227.632812 255.234375 227.90625 255.332031 228.175781 255.429688 Z M 229.179688 255.773438 C 229.457031 255.863281 229.726562 255.957031 230 256.042969 C 229.726562 255.957031 229.457031 255.863281 229.179688 255.773438 Z M 240.113281 258.511719 C 240.511719 258.582031 240.910156 258.648438 241.3125 258.710938 C 240.910156 258.648438 240.511719 258.582031 240.113281 258.511719 Z M 250.082031 259.488281 C 249.863281 259.480469 249.648438 259.46875 249.425781 259.460938 C 249.648438 259.46875 249.867188 259.480469 250.082031 259.488281 Z M 248.074219 259.402344 C 248.523438 259.425781 248.976562 259.445312 249.425781 259.460938 C 248.980469 259.445312 248.527344 259.425781 248.074219 259.402344 Z M 239.375 258.386719 C 238.921875 258.304688 238.46875 258.214844 238.015625 258.121094 C 238.46875 258.21875 238.921875 258.304688 239.375 258.386719 Z M 207.398438 225.351562 C 207.863281 225.902344 208.347656 226.4375 208.828125 226.972656 C 208.347656 226.4375 207.863281 225.902344 207.398438 225.351562 Z M 250.082031 259.488281 C 250.753906 259.503906 251.429688 259.515625 252.101562 259.515625 C 251.429688 259.515625 250.753906 259.503906 250.082031 259.488281 Z M 246.082031 259.265625 C 246.484375 259.304688 246.894531 259.328125 247.296875 259.359375 C 246.894531 259.328125 246.492188 259.296875 246.082031 259.265625 Z M 209.160156 227.332031 C 209.050781 227.214844 208.941406 227.09375 208.828125 226.972656 C 208.941406 227.09375 209.050781 227.210938 209.160156 227.332031 Z M 247.304688 259.351562 C 247.5625 259.371094 247.816406 259.386719 248.074219 259.402344 C 247.816406 259.386719 247.5625 259.371094 247.304688 259.351562 Z M 223.800781 253.722656 C 223.40625 253.550781 223.011719 253.375 222.621094 253.195312 C 223.011719 253.375 223.40625 253.550781 223.800781 253.722656 Z M 246.082031 259.265625 C 245.8125 259.242188 245.535156 259.21875 245.265625 259.191406 C 245.542969 259.21875 245.8125 259.242188 246.082031 259.265625 Z M 242.117188 258.820312 C 241.847656 258.78125 241.582031 258.746094 241.320312 258.703125 C 241.578125 258.746094 241.847656 258.78125 242.117188 258.820312 Z M 240.113281 258.511719 C 239.871094 258.472656 239.617188 258.433594 239.375 258.390625 C 239.617188 258.433594 239.871094 258.472656 240.113281 258.511719 Z M 244.097656 259.070312 C 244.488281 259.113281 244.882812 259.15625 245.273438 259.191406 C 244.875 259.148438 244.484375 259.113281 244.097656 259.070312 Z M 242.117188 258.820312 C 242.5 258.875 242.894531 258.921875 243.285156 258.972656 C 242.886719 258.929688 242.5 258.875 242.117188 258.820312 Z M 244.097656 259.070312 C 243.824219 259.039062 243.554688 259.007812 243.277344 258.972656 C 243.554688 259.007812 243.824219 259.039062 244.097656 259.070312 Z M 210.675781 228.917969 C 210.15625 228.398438 209.65625 227.871094 209.160156 227.332031 C 209.65625 227.863281 210.164062 228.398438 210.675781 228.917969 Z M 204.828125 241.777344 C 205.085938 242 205.34375 242.226562 205.597656 242.445312 C 205.34375 242.226562 205.085938 242.003906 204.828125 241.777344 Z M 203.433594 240.53125 C 203.683594 240.761719 203.933594 240.988281 204.1875 241.214844 C 203.933594 240.988281 203.683594 240.761719 203.433594 240.53125 Z M 206.253906 242.992188 C 206.035156 242.808594 205.820312 242.628906 205.597656 242.445312 C 205.8125 242.628906 206.035156 242.808594 206.253906 242.992188 Z M 204.828125 241.777344 C 204.613281 241.59375 204.398438 241.40625 204.191406 241.214844 C 204.398438 241.40625 204.613281 241.59375 204.828125 241.777344 Z M 209.222656 245.316406 C 208.714844 244.9375 208.207031 244.550781 207.710938 244.160156 C 208.207031 244.550781 208.707031 244.9375 209.222656 245.316406 Z M 207.042969 243.640625 C 207.261719 243.816406 207.484375 243.988281 207.710938 244.164062 C 207.484375 243.988281 207.261719 243.816406 207.042969 243.640625 Z M 206.253906 242.992188 C 206.515625 243.203125 206.78125 243.425781 207.042969 243.640625 C 206.773438 243.425781 206.515625 243.203125 206.253906 242.992188 Z M 201.476562 238.664062 C 201.230469 238.417969 200.984375 238.179688 200.746094 237.9375 C 200.984375 238.179688 201.230469 238.425781 201.476562 238.664062 Z M 207.398438 225.351562 Z M 209.925781 245.84375 C 209.6875 245.671875 209.453125 245.492188 209.222656 245.316406 C 209.453125 245.492188 209.6875 245.671875 209.925781 245.84375 Z M 202.074219 239.253906 C 202.320312 239.492188 202.570312 239.722656 202.816406 239.957031 C 202.5625 239.722656 202.320312 239.492188 202.074219 239.253906 Z M 202.074219 239.253906 C 201.871094 239.054688 201.675781 238.859375 201.476562 238.664062 C 201.675781 238.859375 201.871094 239.054688 202.074219 239.253906 Z M 203.433594 240.53125 C 203.226562 240.339844 203.015625 240.144531 202.816406 239.957031 C 203.023438 240.152344 203.226562 240.339844 203.433594 240.53125 Z M 222.621094 253.195312 C 222.304688 253.050781 221.984375 252.910156 221.667969 252.757812 C 221.984375 252.910156 222.304688 253.054688 222.621094 253.195312 Z M 217.921875 250.871094 C 217.640625 250.71875 217.359375 250.566406 217.078125 250.414062 C 217.359375 250.566406 217.640625 250.71875 217.921875 250.871094 Z M 218.734375 251.304688 C 218.460938 251.164062 218.191406 251.011719 217.921875 250.871094 C 218.191406 251.019531 218.460938 251.164062 218.734375 251.304688 Z M 216.25 249.941406 C 216.527344 250.101562 216.796875 250.253906 217.070312 250.414062 C 216.800781 250.253906 216.527344 250.09375 216.25 249.941406 Z M 216.25 249.941406 C 215.984375 249.789062 215.714844 249.628906 215.445312 249.46875 C 215.714844 249.625 215.984375 249.78125 216.25 249.941406 Z M 218.734375 251.304688 C 219.035156 251.464844 219.339844 251.617188 219.648438 251.769531 C 219.339844 251.617188 219.035156 251.464844 218.734375 251.304688 Z M 221.667969 252.761719 C 221.25 252.566406 220.828125 252.371094 220.417969 252.164062 C 220.828125 252.363281 221.25 252.566406 221.667969 252.761719 Z M 219.648438 251.769531 C 219.90625 251.898438 220.160156 252.035156 220.417969 252.164062 C 220.15625 252.035156 219.90625 251.90625 219.648438 251.769531 Z M 213.839844 248.484375 C 214.097656 248.648438 214.359375 248.808594 214.625 248.96875 C 214.359375 248.808594 214.105469 248.648438 213.839844 248.484375 Z M 214.625 248.972656 C 214.898438 249.140625 215.167969 249.304688 215.445312 249.46875 C 215.167969 249.304688 214.898438 249.140625 214.625 248.972656 Z M 212.269531 247.464844 C 212 247.285156 211.722656 247.101562 211.460938 246.917969 C 211.730469 247.109375 212 247.285156 212.269531 247.464844 Z M 210.726562 246.40625 C 210.972656 246.574219 211.214844 246.753906 211.460938 246.917969 C 211.210938 246.753906 210.972656 246.574219 210.726562 246.40625 Z M 213.027344 247.964844 C 212.777344 247.800781 212.519531 247.632812 212.269531 247.464844 C 212.519531 247.632812 212.769531 247.800781 213.027344 247.964844 Z M 209.925781 245.84375 C 210.1875 246.03125 210.457031 246.222656 210.726562 246.40625 C 210.457031 246.214844 210.1875 246.03125 209.925781 245.84375 Z M 213.839844 248.484375 C 213.566406 248.3125 213.296875 248.140625 213.027344 247.964844 C 213.296875 248.140625 213.570312 248.3125 213.839844 248.484375 Z M 122.910156 128.914062 C 115.003906 128.914062 107.332031 130.460938 100.105469 133.519531 C 93.132812 136.46875 86.867188 140.691406 81.492188 146.070312 C 77.839844 149.722656 74.695312 153.816406 72.144531 158.246094 L 70.9375 160.332031 L 86.804688 160.332031 L 87.226562 159.792969 C 95.871094 148.671875 108.878906 142.296875 122.910156 142.296875 C 139.75 142.296875 154.460938 151.550781 162.234375 165.238281 C 163.203125 161.335938 164.421875 157.492188 165.890625 153.75 C 166.207031 152.941406 166.511719 152.183594 166.824219 151.441406 C 167.082031 150.835938 167.34375 150.230469 167.613281 149.632812 C 166.574219 148.402344 165.480469 147.214844 164.328125 146.0625 C 158.949219 140.6875 152.683594 136.464844 145.710938 133.515625 C 138.488281 130.460938 130.816406 128.914062 122.910156 128.914062 Z M 56.554688 159.488281 C 67.886719 132.75 93.925781 115.46875 122.910156 115.46875 C 143.066406 115.46875 161.3125 123.792969 174.394531 137.179688 C 176.726562 133.589844 179.308594 130.148438 182.101562 126.925781 C 182.261719 126.742188 182.421875 126.5625 182.582031 126.386719 C 174.902344 118.886719 166.015625 112.96875 156.152344 108.800781 C 145.625 104.339844 134.4375 102.082031 122.910156 102.082031 C 111.382812 102.082031 100.199219 104.339844 89.660156 108.800781 C 79.492188 113.097656 70.359375 119.253906 62.519531 127.097656 C 54.675781 134.941406 48.511719 144.074219 44.21875 154.246094 C 43.636719 155.617188 43.082031 157.035156 42.558594 158.472656 L 41.886719 160.339844 L 56.199219 160.339844 Z M 337.347656 182.101562 L 337.265625 180.800781 L 245.40625 180.800781 L 245.40625 214.402344 L 258.796875 214.402344 L 258.796875 194.1875 L 296.796875 194.1875 C 293.523438 216.246094 274.574219 232.6875 252.101562 232.6875 C 235.269531 232.6875 220.554688 223.429688 212.777344 209.742188 C 211.808594 213.644531 210.59375 217.480469 209.125 221.230469 C 208.792969 222.066406 208.492188 222.8125 208.195312 223.519531 C 207.9375 224.132812 207.667969 224.738281 207.398438 225.351562 C 207.863281 225.902344 208.347656 226.4375 208.828125 226.972656 C 208.941406 227.09375 209.050781 227.210938 209.160156 227.332031 C 209.65625 227.863281 210.164062 228.398438 210.675781 228.917969 C 216.054688 234.296875 222.320312 238.519531 229.296875 241.46875 C 236.523438 244.527344 244.195312 246.074219 252.101562 246.074219 C 260.007812 246.074219 267.679688 244.527344 274.90625 241.46875 C 281.882812 238.519531 288.148438 234.296875 293.523438 228.917969 C 298.898438 223.539062 303.125 217.28125 306.074219 210.296875 C 308.253906 205.144531 309.671875 199.730469 310.300781 194.1875 L 323.8125 194.1875 C 320.410156 230.941406 289.191406 259.515625 252.101562 259.515625 C 251.429688 259.515625 250.753906 259.503906 250.082031 259.488281 C 249.863281 259.480469 249.648438 259.46875 249.425781 259.460938 C 248.976562 259.445312 248.523438 259.425781 248.074219 259.402344 C 247.816406 259.386719 247.5625 259.371094 247.304688 259.351562 C 246.894531 259.328125 246.492188 259.296875 246.085938 259.261719 C 245.816406 259.234375 245.542969 259.210938 245.273438 259.1875 C 244.882812 259.148438 244.488281 259.105469 244.097656 259.0625 C 243.824219 259.035156 243.554688 259.003906 243.277344 258.964844 C 242.886719 258.917969 242.5 258.867188 242.109375 258.8125 C 241.839844 258.777344 241.578125 258.738281 241.3125 258.695312 C 240.910156 258.636719 240.511719 258.570312 240.113281 258.5 C 239.871094 258.457031 239.621094 258.421875 239.375 258.378906 C 238.921875 258.300781 238.46875 258.207031 238.015625 258.117188 C 237.832031 258.078125 237.644531 258.042969 237.453125 258.003906 C 236.824219 257.878906 236.199219 257.738281 235.574219 257.589844 C 235.390625 257.546875 235.214844 257.496094 235.035156 257.457031 C 234.589844 257.34375 234.144531 257.234375 233.703125 257.117188 C 233.453125 257.050781 233.207031 256.984375 232.957031 256.910156 C 232.582031 256.804688 232.214844 256.703125 231.84375 256.597656 C 231.574219 256.519531 231.308594 256.4375 231.039062 256.355469 C 230.691406 256.25 230.347656 256.140625 230 256.03125 C 229.726562 255.945312 229.457031 255.851562 229.179688 255.761719 C 228.84375 255.648438 228.515625 255.535156 228.175781 255.410156 C 227.902344 255.3125 227.632812 255.214844 227.355469 255.117188 C 227.027344 254.996094 226.695312 254.871094 226.367188 254.746094 C 226.097656 254.640625 225.828125 254.542969 225.566406 254.433594 C 225.226562 254.296875 224.890625 254.15625 224.554688 254.015625 C 224.304688 253.914062 224.054688 253.808594 223.800781 253.703125 C 223.40625 253.53125 223.011719 253.355469 222.621094 253.179688 C 222.304688 253.03125 221.984375 252.890625 221.667969 252.738281 C 221.25 252.542969 220.828125 252.347656 220.417969 252.136719 C 220.160156 252.007812 219.90625 251.882812 219.648438 251.746094 C 219.339844 251.59375 219.035156 251.441406 218.734375 251.28125 C 218.460938 251.140625 218.191406 250.988281 217.921875 250.847656 C 217.640625 250.695312 217.359375 250.539062 217.078125 250.386719 C 216.800781 250.234375 216.527344 250.074219 216.257812 249.917969 C 215.988281 249.765625 215.71875 249.605469 215.449219 249.445312 C 215.175781 249.28125 214.898438 249.117188 214.628906 248.949219 C 214.367188 248.792969 214.109375 248.625 213.847656 248.464844 C 213.570312 248.296875 213.300781 248.125 213.035156 247.945312 C 212.78125 247.78125 212.527344 247.617188 212.273438 247.445312 C 212.003906 247.265625 211.730469 247.082031 211.46875 246.898438 C 211.222656 246.730469 210.976562 246.558594 210.734375 246.386719 C 210.464844 246.195312 210.195312 246.011719 209.929688 245.824219 C 209.691406 245.652344 209.460938 245.476562 209.226562 245.296875 C 208.71875 244.917969 208.210938 244.53125 207.714844 244.140625 C 207.496094 243.96875 207.269531 243.792969 207.050781 243.613281 C 206.785156 243.402344 206.523438 243.179688 206.261719 242.964844 C 206.039062 242.78125 205.824219 242.605469 205.605469 242.421875 C 205.347656 242.203125 205.089844 241.980469 204.835938 241.753906 C 204.621094 241.570312 204.40625 241.382812 204.199219 241.191406 C 203.945312 240.964844 203.691406 240.738281 203.445312 240.507812 C 203.238281 240.316406 203.027344 240.121094 202.828125 239.929688 C 202.578125 239.699219 202.332031 239.460938 202.085938 239.226562 C 201.886719 239.03125 201.6875 238.835938 201.488281 238.640625 C 201.242188 238.394531 200.996094 238.15625 200.757812 237.910156 C 200.714844 237.871094 200.671875 237.828125 200.628906 237.785156 C 198.304688 241.367188 195.71875 244.8125 192.921875 248.039062 C 192.761719 248.222656 192.601562 248.398438 192.445312 248.582031 C 200.121094 256.085938 209.007812 262 218.863281 266.167969 C 229.402344 270.621094 240.585938 272.886719 252.113281 272.886719 C 263.640625 272.886719 274.824219 270.628906 285.363281 266.167969 C 295.53125 261.867188 304.667969 255.707031 312.511719 247.867188 C 320.355469 240.023438 326.511719 230.894531 330.8125 220.71875 C 334.5625 211.851562 336.765625 202.480469 337.359375 192.859375 C 337.46875 191.078125 337.523438 189.269531 337.523438 187.476562 C 337.511719 185.714844 337.457031 183.894531 337.347656 182.101562 Z M 202.472656 218.625 C 203.3125 216.492188 204.058594 214.332031 204.710938 212.152344 C 206.816406 205.175781 207.515625 197.871094 207.019531 190.601562 C 206.953125 189.574219 206.914062 188.539062 206.914062 187.492188 C 206.914062 184.359375 207.238281 181.300781 207.84375 178.347656 C 212.085938 157.792969 230.320312 142.300781 252.105469 142.300781 C 266.136719 142.300781 279.144531 148.675781 287.796875 159.800781 L 288.214844 160.339844 L 304.078125 160.339844 L 302.878906 158.253906 C 300.328125 153.824219 297.183594 149.730469 293.53125 146.078125 C 288.148438 140.691406 281.882812 136.46875 274.90625 133.519531 C 267.679688 130.460938 260.007812 128.914062 252.101562 128.914062 C 244.195312 128.914062 236.523438 130.460938 229.296875 133.519531 C 222.320312 136.46875 216.054688 140.691406 210.675781 146.070312 C 207.539062 149.210938 204.796875 152.652344 202.464844 156.363281 C 200.808594 159.003906 199.351562 161.78125 198.121094 164.691406 C 197.894531 165.222656 197.679688 165.761719 197.46875 166.296875 C 195.332031 171.804688 194.507812 177.722656 194.824219 183.621094 C 194.890625 184.898438 194.929688 186.191406 194.929688 187.488281 C 194.929688 190.730469 194.707031 193.917969 194.292969 197.050781 C 193.238281 204.949219 190.902344 212.445312 187.5 219.328125 C 185.222656 223.925781 182.476562 228.246094 179.3125 232.222656 C 166.109375 248.839844 145.726562 259.511719 122.898438 259.511719 C 85.800781 259.511719 54.589844 230.9375 51.1875 194.179688 L 64.699219 194.179688 C 65.328125 199.726562 66.746094 205.132812 68.925781 210.292969 C 71.882812 217.265625 76.101562 223.53125 81.480469 228.910156 C 86.859375 234.289062 93.117188 238.511719 100.101562 241.460938 C 107.328125 244.519531 115 246.066406 122.90625 246.066406 C 130.808594 246.066406 138.484375 244.519531 145.710938 241.460938 C 152.683594 238.511719 158.949219 234.289062 164.328125 228.910156 C 167.46875 225.773438 170.207031 222.328125 172.539062 218.621094 C 174.199219 215.976562 175.652344 213.199219 176.878906 210.292969 C 177.023438 209.945312 177.164062 209.601562 177.304688 209.253906 C 179.578125 203.574219 180.5 197.460938 180.175781 191.355469 C 180.109375 190.074219 180.070312 188.785156 180.070312 187.488281 C 180.070312 184.246094 180.285156 181.050781 180.703125 177.925781 C 181.753906 170.023438 184.09375 162.53125 187.5 155.644531 C 189.777344 151.050781 192.523438 146.730469 195.6875 142.753906 C 208.890625 126.136719 229.273438 115.464844 252.09375 115.464844 C 281.074219 115.464844 307.121094 132.742188 318.453125 159.484375 L 318.8125 160.328125 L 333.125 160.328125 L 332.453125 158.460938 C 331.933594 157.027344 331.375 155.601562 330.792969 154.234375 C 326.492188 144.0625 320.335938 134.929688 312.492188 127.082031 C 304.65625 119.253906 295.519531 113.097656 285.351562 108.800781 C 274.8125 104.339844 263.628906 102.082031 252.101562 102.082031 C 240.574219 102.082031 229.386719 104.339844 218.851562 108.800781 C 208.683594 113.101562 199.546875 119.257812 191.703125 127.101562 C 190.246094 128.558594 188.847656 130.0625 187.507812 131.613281 C 184.464844 135.117188 181.734375 138.839844 179.320312 142.765625 C 177.066406 146.425781 175.089844 150.253906 173.402344 154.25 C 173.101562 154.953125 172.816406 155.660156 172.539062 156.367188 C 171.703125 158.496094 170.953125 160.65625 170.300781 162.835938 C 168.195312 169.8125 167.496094 177.121094 167.992188 184.390625 C 168.0625 185.417969 168.097656 186.453125 168.097656 187.5 C 168.097656 190.632812 167.78125 193.691406 167.167969 196.640625 C 162.925781 217.195312 144.695312 232.691406 122.90625 232.691406 C 100.429688 232.691406 81.480469 216.25 78.207031 194.195312 L 116.210938 194.195312 L 116.210938 214.410156 L 129.597656 214.410156 L 129.597656 180.804688 L 37.75 180.804688 L 37.671875 182.109375 C 37.5625 183.902344 37.507812 185.71875 37.507812 187.5 C 37.507812 189.300781 37.5625 191.109375 37.671875 192.882812 C 38.265625 202.503906 40.46875 211.875 44.21875 220.742188 C 48.519531 230.914062 54.679688 240.046875 62.519531 247.890625 C 70.363281 255.734375 79.492188 261.890625 89.667969 266.191406 C 100.203125 270.648438 111.394531 272.910156 122.917969 272.910156 C 134.445312 272.910156 145.628906 270.652344 156.167969 266.191406 C 166.335938 261.890625 175.46875 255.730469 183.316406 247.890625 C 184.777344 246.433594 186.171875 244.929688 187.519531 243.382812 C 190.554688 239.875 193.289062 236.15625 195.707031 232.226562 C 197.957031 228.570312 199.933594 224.738281 201.621094 220.742188 C 201.902344 220.039062 202.191406 219.328125 202.472656 218.625 Z M 202.472656 218.625 " fill-opacity="1" fill-rule="nonzero"/></g><g fill="#ffffff" fill-opacity="1"><g transform="translate(37.500002, 86.3156)"><g><path d="M 17.964844 -28.046875 C 17.21875 -28.125 16.476562 -27.890625 15.691406 -27.890625 C 14.632812 -27.929688 13.613281 -27.734375 12.632812 -27.417969 C 11.609375 -27.105469 10.589844 -26.675781 9.609375 -26.242188 C 8.238281 -25.695312 7.140625 -24.792969 6 -23.890625 C 5.726562 -23.652344 5.414062 -23.417969 5.21875 -23.105469 C 4.824219 -22.554688 3.882812 -21.378906 3.648438 -20.90625 C 2.824219 -19.023438 2.550781 -18.710938 2.195312 -17.652344 C 1.882812 -16.632812 1.882812 -15.691406 1.804688 -14.671875 C 1.726562 -13.613281 1.882812 -11.21875 2.15625 -10.003906 C 2.511719 -8.355469 3.253906 -6.550781 4.394531 -5.097656 C 4.941406 -4.394531 5.414062 -3.648438 6.199219 -3.058594 C 6.824219 -2.589844 7.375 -1.960938 8.160156 -1.609375 C 8.707031 -1.332031 9.21875 -0.980469 9.804688 -0.785156 C 10.355469 -0.589844 10.945312 -0.511719 11.453125 -0.3125 C 12.789062 0.15625 14.277344 0.472656 15.691406 0.550781 C 16.003906 0.550781 16.316406 0.429688 16.59375 0.472656 C 17.808594 0.667969 19.023438 0.511719 20.203125 0.3125 C 21.96875 0.0390625 23.652344 -0.429688 25.222656 -1.292969 C 25.613281 -1.492188 26.007812 -1.765625 26.4375 -1.882812 C 26.871094 -1.175781 27.378906 -0.589844 27.695312 0.15625 C 28.675781 0.234375 29.851562 0 30.753906 0.195312 C 30.949219 0.117188 30.910156 -0.511719 30.910156 -0.902344 C 30.871094 -1.175781 30.832031 -1.492188 30.871094 -1.804688 C 30.988281 -3.253906 30.832031 -4.707031 30.910156 -6.160156 C 30.949219 -7.21875 30.714844 -8.238281 30.714844 -9.257812 C 30.753906 -10.707031 30.714844 -12.121094 30.714844 -13.574219 C 30.714844 -13.730469 30.753906 -13.886719 30.597656 -13.964844 C 29.617188 -13.847656 28.675781 -13.964844 27.695312 -13.886719 C 27.066406 -13.847656 26.4375 -13.769531 25.773438 -13.847656 C 24.832031 -13.964844 23.851562 -13.613281 22.910156 -13.730469 C 21.847656 -13.808594 20.75 -13.730469 19.691406 -13.808594 C 19.222656 -13.808594 18.789062 -13.808594 18.242188 -13.730469 C 18.121094 -12.589844 18.359375 -11.925781 18.160156 -10.828125 C 18.242188 -10.667969 18.199219 -10.199219 18.4375 -10.199219 L 21.222656 -10.199219 L 21.222656 -4.078125 C 20.515625 -3.804688 19.730469 -3.648438 18.984375 -3.726562 C 18.28125 -3.84375 17.535156 -3.921875 16.867188 -4.394531 C 16.359375 -4.746094 15.925781 -5.097656 15.496094 -5.609375 C 15.101562 -6.082031 14.710938 -6.511719 14.355469 -7.179688 C 13.730469 -8.277344 13.414062 -9.375 13.375 -9.53125 C 13.023438 -10.628906 12.945312 -11.808594 12.867188 -12.90625 C 12.789062 -14.042969 12.75 -15.140625 12.945312 -16.277344 C 13.101562 -17.101562 13.179688 -17.925781 13.453125 -18.75 C 13.886719 -20.082031 14.710938 -21.144531 15.652344 -22.125 C 16.316406 -22.828125 17.179688 -23.339844 18.082031 -23.691406 C 18.90625 -24.046875 19.769531 -24.085938 20.710938 -23.890625 C 21.652344 -23.652344 22.515625 -23.457031 23.222656 -22.75 C 23.929688 -22.046875 24.359375 -21.222656 24.671875 -20.164062 C 24.671875 -20.003906 27.773438 -20.242188 29.222656 -20.164062 C 29.222656 -21.261719 28.949219 -22.125 28.28125 -23.339844 C 28.046875 -23.808594 27.8125 -24.242188 27.417969 -24.632812 C 27.066406 -25.027344 26.636719 -25.300781 26.242188 -25.695312 C 25.574219 -26.398438 24.710938 -26.792969 23.808594 -27.183594 C 21.96875 -27.929688 19.964844 -27.890625 17.964844 -28.046875 Z M 17.964844 -28.046875 "/></g></g></g><g fill="#ffffff" fill-opacity="1"><g transform="translate(70.840397, 86.3156)"><g><path d="M 16.003906 -21.066406 C 14.316406 -21.105469 12.632812 -21.066406 10.945312 -20.945312 C 8.707031 -20.75 6.550781 -20.203125 4.472656 -19.378906 C 4.078125 -19.222656 3.609375 -19.101562 3.375 -18.515625 C 4.078125 -17.300781 5.019531 -15.257812 5.453125 -14.984375 C 5.570312 -14.867188 6.238281 -15.296875 6.628906 -15.496094 C 7.6875 -16.082031 8.394531 -16.160156 9.492188 -16.4375 C 11.023438 -16.828125 12.394531 -17.0625 13.964844 -16.515625 C 15.296875 -16.042969 16.082031 -15.023438 15.925781 -13.574219 C 15.652344 -13.492188 15.179688 -13.613281 14.90625 -13.574219 C 14.199219 -13.53125 13.53125 -13.652344 12.828125 -13.652344 C 10.90625 -13.730469 8.984375 -13.492188 7.140625 -12.984375 C 5.296875 -12.472656 3.804688 -11.492188 2.824219 -9.847656 C 1.804688 -8.082031 1.53125 -6.238281 1.960938 -4.277344 C 2.433594 -2.195312 3.765625 -0.824219 5.6875 0 C 7.414062 0.707031 9.257812 0.667969 11.101562 0.429688 C 13.023438 0.15625 14.789062 -0.511719 16.316406 -1.804688 C 16.476562 -1.921875 16.59375 -2.078125 16.828125 -2.078125 C 17.691406 -1.648438 18.082031 -0.707031 18.828125 0.0390625 C 20.90625 0.0390625 22.988281 -0.195312 25.027344 0 C 25.261719 -0.3125 25.261719 -0.550781 25.222656 -0.824219 C 25.066406 -2.433594 25.105469 -4.195312 25.144531 -5.804688 C 25.183594 -8.277344 25.144531 -10.75 25.105469 -13.21875 C 25.066406 -14.59375 24.671875 -15.886719 23.808594 -17.023438 C 23.378906 -17.574219 22.867188 -18.042969 22.320312 -18.476562 C 20.515625 -20.003906 18.4375 -20.984375 16.003906 -21.066406 Z M 16.082031 -9.804688 C 16.082031 -8.121094 15.964844 -6.550781 16.121094 -5.019531 C 15.691406 -4.472656 15.179688 -4.078125 14.59375 -3.84375 C 13.296875 -3.253906 11.53125 -4.195312 11.335938 -5.648438 C 11.101562 -7.6875 11.886719 -9.179688 14.199219 -9.6875 C 14.789062 -9.804688 15.417969 -9.804688 16.082031 -9.804688 Z M 16.082031 -9.804688 "/></g></g></g><g fill="#ffffff" fill-opacity="1"><g transform="translate(98.49331, 86.3156)"><g><path d="M 32.988281 -20.945312 C 30.714844 -20.554688 28.910156 -19.730469 26.988281 -18.320312 C 26.636719 -18.042969 26.242188 -17.769531 25.773438 -17.613281 C 25.457031 -18.121094 25.222656 -18.59375 24.871094 -18.984375 C 23.496094 -20.476562 21.613281 -20.789062 19.808594 -20.945312 C 17.179688 -21.222656 15.0625 -20.515625 12.789062 -19.101562 C 12.199219 -18.75 11.691406 -18.28125 11.023438 -18.042969 C 10.355469 -18.828125 10.042969 -19.847656 9.140625 -20.476562 C 8.121094 -20.476562 7.0625 -20.4375 5.960938 -20.4375 C 4.902344 -20.398438 3.804688 -20.59375 2.589844 -20.398438 C 2.3125 -18.671875 2.628906 -16.984375 2.511719 -15.296875 C 2.394531 -13.652344 2.511719 -11.964844 2.511719 -10.316406 C 2.511719 -8.589844 2.511719 -6.902344 2.433594 -5.21875 C 2.3125 -3.53125 2.355469 -1.84375 2.433594 -0.117188 C 2.550781 -0.0390625 2.707031 0.078125 2.863281 0.117188 C 5.804688 0.195312 8.628906 0 11.691406 -0.078125 C 11.925781 -4.863281 11.492188 -9.609375 11.769531 -14.394531 C 11.886719 -14.828125 12.199219 -15.023438 12.472656 -15.257812 C 13.0625 -15.730469 13.335938 -15.886719 14.082031 -16.121094 C 15.652344 -16.59375 16.984375 -16.199219 16.984375 -14.199219 C 17.023438 -11.691406 17.21875 -9.648438 17.023438 -6.707031 C 17.023438 -4.707031 16.984375 -2.707031 16.945312 -0.707031 C 16.945312 -0.429688 16.90625 -0.15625 17.21875 0.117188 C 20.164062 -0.234375 23.222656 0.15625 26.28125 -0.0390625 C 26.476562 -0.273438 26.515625 -0.589844 26.476562 -0.941406 C 26.4375 -1.332031 26.398438 -1.726562 26.398438 -2.078125 C 26.359375 -4.628906 26.359375 -7.179688 26.320312 -9.6875 C 26.28125 -11.21875 26.4375 -12.710938 26.554688 -14.355469 C 27.105469 -15.101562 27.617188 -15.21875 28.242188 -15.730469 C 28.753906 -16.160156 29.105469 -16.238281 29.773438 -16.277344 C 30.636719 -16.277344 31.539062 -15.535156 31.617188 -14.433594 C 31.65625 -13.652344 31.65625 -12.828125 31.65625 -12.042969 C 31.65625 -9.925781 31.617188 -7.804688 31.65625 -5.6875 C 31.65625 -4 31.65625 -2.3125 31.695312 -0.589844 C 31.695312 -0.3125 31.773438 -0.078125 32.125 0.15625 C 35.027344 0.078125 38.011719 0.234375 40.992188 -0.0390625 C 41.304688 -0.390625 41.265625 -0.746094 41.265625 -1.097656 C 41.226562 -2 41.1875 -2.902344 41.1875 -3.765625 C 41.1875 -6.238281 41.148438 -8.667969 41.265625 -11.101562 C 41.34375 -12.90625 41.304688 -14.671875 40.796875 -16.4375 C 40.441406 -17.652344 39.933594 -18.828125 38.835938 -19.652344 C 37.109375 -20.945312 35.070312 -21.339844 32.988281 -20.945312 Z M 32.988281 -20.945312 "/></g></g></g><g fill="#ffffff" fill-opacity="1"><g transform="translate(142.228054, 86.3156)"><g><path d="M 5.335938 -28.636719 C 4.117188 -28.242188 3.097656 -27.734375 2.628906 -26.4375 C 2.472656 -25.96875 2.355469 -25.496094 2.472656 -25.066406 C 2.785156 -22.949219 4.277344 -22.125 6.039062 -22.007812 C 6.667969 -22.007812 7.257812 -21.925781 7.84375 -21.96875 C 9.453125 -22.085938 10.828125 -22.632812 11.648438 -24.242188 C 12.003906 -24.949219 12.042969 -26.4375 11.375 -27.183594 C 10.828125 -27.773438 10.199219 -28.28125 9.375 -28.597656 C 8.003906 -29.144531 6.667969 -29.066406 5.335938 -28.636719 Z M 11.570312 -20.671875 C 8.589844 -20.59375 5.375 -20.75 2.667969 -20.554688 C 2.394531 -20.28125 2.355469 -20.042969 2.355469 -19.808594 C 2.394531 -19.222656 2.394531 -18.359375 2.433594 -17.808594 C 2.589844 -16.199219 2.511719 -14.828125 2.511719 -13.257812 C 2.511719 -11.691406 2.355469 -10.121094 2.355469 -8.511719 C 2.394531 -6.394531 2.550781 -4.316406 2.511719 -2.195312 C 2.511719 -1.492188 2.433594 -0.824219 2.550781 -0.0390625 C 5.570312 0.0390625 8.589844 0.0390625 11.570312 -0.078125 C 11.925781 -0.429688 11.886719 -0.746094 11.847656 -1.058594 C 11.769531 -1.609375 11.730469 -2.117188 11.769531 -2.667969 C 11.769531 -4.589844 11.847656 -6.433594 11.847656 -8.316406 C 11.808594 -10.238281 11.808594 -12.160156 11.808594 -14.082031 C 11.808594 -15.769531 11.886719 -17.730469 11.886719 -19.417969 C 11.925781 -19.808594 11.886719 -20.242188 11.570312 -20.671875 Z M 11.570312 -20.671875 "/></g></g></g><g fill="#ffffff" fill-opacity="1"><g transform="translate(156.387916, 86.3156)"><g><path d="M 21.691406 -20.789062 C 19.0625 -21.417969 16.632812 -20.828125 14.199219 -19.925781 C 13.0625 -19.496094 12.082031 -18.867188 11.0625 -18.160156 C 10.355469 -18.75 10.003906 -19.808594 9.492188 -20.476562 C 6.472656 -20.828125 4.746094 -20.515625 2.394531 -20.476562 C 2.3125 -13.691406 2.355469 -6.746094 2.589844 0 L 10.628906 0 C 11.140625 0 11.648438 0.0390625 12.082031 -0.351562 C 12.121094 -2.039062 11.964844 -3.648438 11.925781 -5.296875 C 11.847656 -7.84375 11.886719 -10.355469 11.886719 -12.90625 C 11.886719 -13.492188 12.003906 -14.082031 12.160156 -14.59375 C 13.0625 -15.257812 13.847656 -16.003906 14.867188 -16.398438 C 16.476562 -16.984375 18.199219 -15.964844 17.964844 -14.160156 C 17.964844 -12.945312 17.925781 -11.925781 18.003906 -10.789062 C 18.121094 -9.179688 18.082031 -7.53125 18.082031 -5.882812 C 18.082031 -4.394531 18.121094 -2.863281 18.121094 -1.332031 C 18.121094 -0.980469 18.042969 -0.550781 18.242188 -0.15625 C 18.59375 0.195312 18.945312 0.195312 19.378906 0.195312 C 20.359375 0.117188 21.183594 0.078125 22.164062 0.078125 C 23.851562 0.0390625 25.535156 0.0390625 27.222656 0 C 27.417969 0 27.578125 0 27.734375 -0.195312 C 27.65625 -3.214844 27.65625 -6.277344 27.535156 -9.335938 C 27.457031 -11.179688 27.578125 -13.023438 27.457031 -14.867188 C 27.300781 -17.417969 25.890625 -19.0625 23.769531 -20.242188 C 23.105469 -20.59375 22.398438 -20.632812 21.691406 -20.789062 Z M 21.691406 -20.789062 "/></g></g></g><g fill="#ffffff" fill-opacity="1"><g transform="translate(186.551164, 86.3156)"><g><path d="M 11.570312 -21.183594 C 10.828125 -21.183594 10.082031 -20.984375 9.375 -20.789062 C 6.941406 -20.125 5.414062 -19.222656 4.117188 -17.257812 C 3.335938 -16.160156 2.824219 -15.140625 2.394531 -13.886719 C 1.765625 -12.121094 1.648438 -10.316406 1.882812 -8.472656 C 2.039062 -7.101562 2.273438 -5.6875 2.824219 -4.316406 C 3.175781 -3.53125 4.195312 -1.648438 4.902344 -1.371094 C 5.6875 -0.589844 6.589844 -0.195312 7.6875 0.0390625 C 8.984375 0.351562 10.316406 0.550781 11.691406 0.511719 C 13.652344 0.511719 15.730469 0.117188 17.417969 -0.980469 C 18.042969 -1.371094 18.4375 -1.453125 19.140625 -1.960938 C 19.140625 -1.332031 19.183594 -0.863281 19.140625 -0.351562 C 18.90625 2.078125 17.730469 3.097656 15.257812 3.6875 C 14.042969 3.960938 12.589844 3.960938 11.414062 3.84375 C 9.6875 3.609375 8.433594 3.414062 6.902344 2.589844 C 6.316406 2.273438 5.84375 1.84375 5.21875 1.6875 C 4.824219 1.765625 4.667969 2.039062 4.472656 2.273438 C 4.039062 2.824219 3.335938 3.804688 2.980469 4.394531 C 2.589844 5.019531 2.824219 5.257812 3.609375 5.882812 C 4.550781 6.511719 5.140625 6.746094 6.277344 7.21875 C 9.804688 8.667969 14.121094 8.433594 17.847656 8.121094 C 24.125 7.335938 26.59375 5.335938 27.535156 3.335938 C 28.636719 1.371094 28.714844 0 28.792969 -2.15625 C 28.792969 -3.136719 28.753906 -4.117188 28.753906 -5.097656 C 28.675781 -6.863281 28.988281 -8.589844 28.871094 -10.316406 C 28.675781 -13.257812 28.910156 -16.238281 28.949219 -19.183594 C 28.949219 -20.320312 28.753906 -20.59375 27.617188 -20.632812 C 26.359375 -20.671875 25.105469 -20.515625 23.890625 -20.4375 C 23.261719 -20.398438 22.671875 -20.554688 22.046875 -20.398438 C 21.378906 -19.769531 20.671875 -19.101562 19.964844 -18.515625 C 19.574219 -18.632812 19.300781 -18.90625 19.023438 -19.101562 C 17.925781 -20.042969 16.59375 -20.59375 15.257812 -20.90625 C 14.082031 -21.183594 12.828125 -21.144531 11.570312 -21.183594 Z M 14.945312 -16.238281 C 16.238281 -16.710938 17.496094 -16.554688 18.515625 -15.535156 C 18.945312 -15.101562 19.222656 -14.671875 19.140625 -14.003906 C 19.101562 -13.574219 19.101562 -13.101562 19.101562 -12.671875 L 19.023438 -8.746094 C 19.023438 -8.082031 19.101562 -7.414062 19.101562 -6.746094 C 19.101562 -6.160156 18.945312 -5.6875 18.4375 -5.296875 C 17.808594 -4.785156 17.257812 -4.238281 16.4375 -4 C 15.296875 -3.726562 14.433594 -4.117188 13.730469 -4.941406 C 12.984375 -5.765625 12.632812 -6.746094 12.394531 -7.765625 C 11.964844 -9.453125 11.769531 -10.828125 12.160156 -12.550781 C 12.550781 -14.160156 13.257812 -15.613281 14.945312 -16.238281 Z M 14.945312 -16.238281 "/></g></g></g><g fill="#ffffff" fill-opacity="1"><g transform="translate(217.930367, 86.3156)"><g/></g></g><g fill="#ffffff" fill-opacity="1"><g transform="translate(228.520852, 86.3156)"><g><path d="M 17.964844 -28.046875 C 17.21875 -28.125 16.476562 -27.890625 15.691406 -27.890625 C 14.632812 -27.929688 13.613281 -27.734375 12.632812 -27.417969 C 11.609375 -27.105469 10.589844 -26.675781 9.609375 -26.242188 C 8.238281 -25.695312 7.140625 -24.792969 6 -23.890625 C 5.726562 -23.652344 5.414062 -23.417969 5.21875 -23.105469 C 4.824219 -22.554688 3.882812 -21.378906 3.648438 -20.90625 C 2.824219 -19.023438 2.550781 -18.710938 2.195312 -17.652344 C 1.882812 -16.632812 1.882812 -15.691406 1.804688 -14.671875 C 1.726562 -13.613281 1.882812 -11.21875 2.15625 -10.003906 C 2.511719 -8.355469 3.253906 -6.550781 4.394531 -5.097656 C 4.941406 -4.394531 5.414062 -3.648438 6.199219 -3.058594 C 6.824219 -2.589844 7.375 -1.960938 8.160156 -1.609375 C 8.707031 -1.332031 9.21875 -0.980469 9.804688 -0.785156 C 10.355469 -0.589844 10.945312 -0.511719 11.453125 -0.3125 C 12.789062 0.15625 14.277344 0.472656 15.691406 0.550781 C 16.003906 0.550781 16.316406 0.429688 16.59375 0.472656 C 17.808594 0.667969 19.023438 0.511719 20.203125 0.3125 C 21.96875 0.0390625 23.652344 -0.429688 25.222656 -1.292969 C 25.613281 -1.492188 26.007812 -1.765625 26.4375 -1.882812 C 26.871094 -1.175781 27.378906 -0.589844 27.695312 0.15625 C 28.675781 0.234375 29.851562 0 30.753906 0.195312 C 30.949219 0.117188 30.910156 -0.511719 30.910156 -0.902344 C 30.871094 -1.175781 30.832031 -1.492188 30.871094 -1.804688 C 30.988281 -3.253906 30.832031 -4.707031 30.910156 -6.160156 C 30.949219 -7.21875 30.714844 -8.238281 30.714844 -9.257812 C 30.753906 -10.707031 30.714844 -12.121094 30.714844 -13.574219 C 30.714844 -13.730469 30.753906 -13.886719 30.597656 -13.964844 C 29.617188 -13.847656 28.675781 -13.964844 27.695312 -13.886719 C 27.066406 -13.847656 26.4375 -13.769531 25.773438 -13.847656 C 24.832031 -13.964844 23.851562 -13.613281 22.910156 -13.730469 C 21.847656 -13.808594 20.75 -13.730469 19.691406 -13.808594 C 19.222656 -13.808594 18.789062 -13.808594 18.242188 -13.730469 C 18.121094 -12.589844 18.359375 -11.925781 18.160156 -10.828125 C 18.242188 -10.667969 18.199219 -10.199219 18.4375 -10.199219 L 21.222656 -10.199219 L 21.222656 -4.078125 C 20.515625 -3.804688 19.730469 -3.648438 18.984375 -3.726562 C 18.28125 -3.84375 17.535156 -3.921875 16.867188 -4.394531 C 16.359375 -4.746094 15.925781 -5.097656 15.496094 -5.609375 C 15.101562 -6.082031 14.710938 -6.511719 14.355469 -7.179688 C 13.730469 -8.277344 13.414062 -9.375 13.375 -9.53125 C 13.023438 -10.628906 12.945312 -11.808594 12.867188 -12.90625 C 12.789062 -14.042969 12.75 -15.140625 12.945312 -16.277344 C 13.101562 -17.101562 13.179688 -17.925781 13.453125 -18.75 C 13.886719 -20.082031 14.710938 -21.144531 15.652344 -22.125 C 16.316406 -22.828125 17.179688 -23.339844 18.082031 -23.691406 C 18.90625 -24.046875 19.769531 -24.085938 20.710938 -23.890625 C 21.652344 -23.652344 22.515625 -23.457031 23.222656 -22.75 C 23.929688 -22.046875 24.359375 -21.222656 24.671875 -20.164062 C 24.671875 -20.003906 27.773438 -20.242188 29.222656 -20.164062 C 29.222656 -21.261719 28.949219 -22.125 28.28125 -23.339844 C 28.046875 -23.808594 27.8125 -24.242188 27.417969 -24.632812 C 27.066406 -25.027344 26.636719 -25.300781 26.242188 -25.695312 C 25.574219 -26.398438 24.710938 -26.792969 23.808594 -27.183594 C 21.96875 -27.929688 19.964844 -27.890625 17.964844 -28.046875 Z M 17.964844 -28.046875 "/></g></g></g><g fill="#ffffff" fill-opacity="1"><g transform="translate(261.861247, 86.3156)"><g><path d="M 14.828125 -21.144531 C 13.21875 -21.300781 11.691406 -21.144531 10.082031 -20.75 C 8.785156 -20.4375 8.277344 -20.125 7.296875 -19.652344 C 6.121094 -19.101562 5.21875 -18.320312 4.433594 -17.339844 C 3.019531 -15.574219 2.234375 -13.574219 1.882812 -11.414062 C 1.609375 -9.6875 1.804688 -7.964844 2.355469 -6.277344 C 2.941406 -4.589844 4 -3.296875 5.335938 -2.273438 C 6.628906 -1.292969 7.726562 -0.628906 9.296875 -0.15625 C 10.550781 0.234375 11.375 0.234375 12.632812 0.429688 C 13.925781 0.667969 15.257812 0.589844 16.515625 0.429688 C 18.59375 0.273438 19.808594 -0.117188 21.652344 -1.097656 C 22.59375 -1.609375 23.574219 -2.472656 24.359375 -3.335938 C 23.652344 -4.785156 22.789062 -6.472656 22.515625 -6.277344 C 22.085938 -6.082031 21.730469 -5.570312 21.378906 -5.296875 C 20.042969 -4.394531 19.339844 -3.84375 17.691406 -3.6875 C 16.359375 -3.53125 15.0625 -3.609375 13.886719 -4.238281 C 12.394531 -4.980469 11.492188 -6.785156 11.730469 -8.394531 C 12.082031 -8.433594 12.472656 -8.550781 12.828125 -8.550781 C 14.75 -8.433594 16.632812 -8.589844 18.554688 -8.472656 C 20.671875 -8.355469 21.730469 -8.550781 23.851562 -8.550781 C 24.125 -8.550781 24.59375 -8.433594 24.632812 -8.707031 C 24.671875 -8.824219 24.710938 -9.0625 24.710938 -9.179688 C 24.832031 -11.691406 24.671875 -13.652344 23.535156 -15.769531 C 23.222656 -16.316406 22.988281 -16.945312 22.515625 -17.417969 C 20.203125 -19.691406 18.082031 -20.828125 14.828125 -21.144531 Z M 15.335938 -16.398438 C 15.496094 -16.238281 15.613281 -16.082031 15.691406 -15.886719 C 16.042969 -14.671875 16.277344 -13.453125 15.925781 -12.082031 C 14.433594 -12.160156 13.0625 -11.925781 11.570312 -12.082031 C 11.648438 -13.453125 11.808594 -14.789062 12.589844 -15.964844 C 13.21875 -16.945312 14.554688 -17.140625 15.335938 -16.398438 Z M 15.335938 -16.398438 "/></g></g></g><g fill="#ffffff" fill-opacity="1"><g transform="translate(288.376672, 86.3156)"><g><path d="M 16.003906 -21.066406 C 14.316406 -21.105469 12.632812 -21.066406 10.945312 -20.945312 C 8.707031 -20.75 6.550781 -20.203125 4.472656 -19.378906 C 4.078125 -19.222656 3.609375 -19.101562 3.375 -18.515625 C 4.078125 -17.300781 5.019531 -15.257812 5.453125 -14.984375 C 5.570312 -14.867188 6.238281 -15.296875 6.628906 -15.496094 C 7.6875 -16.082031 8.394531 -16.160156 9.492188 -16.4375 C 11.023438 -16.828125 12.394531 -17.0625 13.964844 -16.515625 C 15.296875 -16.042969 16.082031 -15.023438 15.925781 -13.574219 C 15.652344 -13.492188 15.179688 -13.613281 14.90625 -13.574219 C 14.199219 -13.53125 13.53125 -13.652344 12.828125 -13.652344 C 10.90625 -13.730469 8.984375 -13.492188 7.140625 -12.984375 C 5.296875 -12.472656 3.804688 -11.492188 2.824219 -9.847656 C 1.804688 -8.082031 1.53125 -6.238281 1.960938 -4.277344 C 2.433594 -2.195312 3.765625 -0.824219 5.6875 0 C 7.414062 0.707031 9.257812 0.667969 11.101562 0.429688 C 13.023438 0.15625 14.789062 -0.511719 16.316406 -1.804688 C 16.476562 -1.921875 16.59375 -2.078125 16.828125 -2.078125 C 17.691406 -1.648438 18.082031 -0.707031 18.828125 0.0390625 C 20.90625 0.0390625 22.988281 -0.195312 25.027344 0 C 25.261719 -0.3125 25.261719 -0.550781 25.222656 -0.824219 C 25.066406 -2.433594 25.105469 -4.195312 25.144531 -5.804688 C 25.183594 -8.277344 25.144531 -10.75 25.105469 -13.21875 C 25.066406 -14.59375 24.671875 -15.886719 23.808594 -17.023438 C 23.378906 -17.574219 22.867188 -18.042969 22.320312 -18.476562 C 20.515625 -20.003906 18.4375 -20.984375 16.003906 -21.066406 Z M 16.082031 -9.804688 C 16.082031 -8.121094 15.964844 -6.550781 16.121094 -5.019531 C 15.691406 -4.472656 15.179688 -4.078125 14.59375 -3.84375 C 13.296875 -3.253906 11.53125 -4.195312 11.335938 -5.648438 C 11.101562 -7.6875 11.886719 -9.179688 14.199219 -9.6875 C 14.789062 -9.804688 15.417969 -9.804688 16.082031 -9.804688 Z M 16.082031 -9.804688 "/></g></g></g><g fill="#ffffff" fill-opacity="1"><g transform="translate(316.029584, 86.3156)"><g><path d="M 19.652344 -20.789062 C 15.964844 -21.144531 13.691406 -20.003906 11.140625 -17.574219 C 10.433594 -18.476562 10.121094 -19.652344 9.335938 -20.398438 C 9.375 -20.632812 3.804688 -20.476562 2.355469 -20.320312 C 2.667969 -13.53125 2.863281 -6.707031 2.785156 -0.117188 C 3.097656 0.15625 3.335938 0.117188 3.570312 0.078125 C 4.589844 0.0390625 5.609375 0.0390625 6.628906 -0.0390625 C 8.042969 -0.195312 9.453125 -0.078125 10.867188 -0.117188 C 11.609375 -0.117188 11.769531 -0.273438 11.847656 -1.019531 L 11.847656 -1.648438 C 11.808594 -2.273438 11.769531 -2.941406 11.808594 -3.570312 C 11.886719 -6.902344 11.730469 -9.847656 11.808594 -13.179688 C 11.964844 -13.453125 12.238281 -13.613281 12.472656 -13.847656 C 14.042969 -15.179688 15.417969 -15.257812 17.179688 -15.101562 C 17.886719 -15.023438 18.59375 -14.789062 19.183594 -14.355469 C 19.378906 -14.199219 19.574219 -14.160156 19.808594 -14.355469 C 20.042969 -14.984375 19.886719 -15.691406 19.886719 -16.398438 C 19.925781 -17.0625 19.925781 -17.925781 19.886719 -18.59375 C 19.847656 -19.300781 19.925781 -19.925781 19.652344 -20.789062 Z M 19.652344 -20.789062 "/></g></g></g><g clip-path="url(#4cb0fe04b2)"><path fill="#ffffff" d="M 270.582031 319.1875 C 268.515625 324.292969 265.59375 328.726562 261.808594 332.476562 C 258.023438 336.226562 253.515625 339.164062 248.277344 341.277344 C 243.039062 343.390625 237.289062 344.453125 231.019531 344.453125 L 200.964844 344.453125 L 204.765625 335.742188 L 231.011719 335.742188 C 236.066406 335.742188 240.660156 334.882812 244.796875 333.164062 C 248.933594 331.449219 252.433594 329.089844 255.308594 326.09375 C 258.179688 323.097656 260.402344 319.5625 261.972656 315.488281 C 263.542969 311.410156 264.328125 307.058594 264.328125 302.421875 C 264.328125 297.707031 263.542969 293.355469 261.972656 289.359375 C 260.402344 285.367188 258.179688 281.871094 255.308594 278.875 C 252.433594 275.875 248.933594 273.539062 244.796875 271.863281 C 240.660156 270.183594 236.066406 269.347656 231.011719 269.347656 L 224.425781 269.347656 L 191.644531 344.453125 L 183.15625 344.453125 L 146.578125 260.636719 L 155.867188 260.636719 L 187.289062 333.519531 L 218.480469 260.636719 L 231.019531 260.636719 C 232.140625 260.636719 233.246094 260.671875 234.332031 260.742188 C 239.328125 261.058594 243.976562 262.097656 248.277344 263.871094 C 253.515625 266.023438 258.023438 268.976562 261.808594 272.730469 C 265.59375 276.480469 268.515625 280.929688 270.582031 286.078125 C 272.640625 291.230469 273.675781 296.757812 273.675781 302.664062 C 273.675781 308.570312 272.640625 314.078125 270.582031 319.1875 " fill-opacity="1" fill-rule="nonzero"/></g><g clip-path="url(#c3a99f0381)"><path fill="#ffffff" d="M 104.265625 319.1875 C 106.332031 324.292969 109.253906 328.726562 113.035156 332.476562 C 116.824219 336.226562 121.332031 339.164062 126.566406 341.277344 C 131.804688 343.390625 137.554688 344.453125 143.824219 344.453125 L 173.878906 344.453125 L 170.078125 335.742188 L 143.835938 335.742188 C 138.78125 335.742188 134.1875 334.882812 130.050781 333.164062 C 125.914062 331.449219 122.410156 329.089844 119.539062 326.09375 C 116.664062 323.097656 114.445312 319.5625 112.875 315.488281 C 111.304688 311.410156 110.519531 307.058594 110.519531 302.421875 C 110.519531 297.707031 111.304688 293.355469 112.875 289.359375 C 114.445312 285.367188 116.664062 281.871094 119.539062 278.875 C 122.410156 275.875 125.914062 273.539062 130.050781 271.863281 C 134.1875 270.183594 138.78125 269.347656 143.835938 269.347656 L 150.421875 269.347656 L 183.203125 344.453125 L 191.6875 344.453125 L 228.269531 260.636719 L 218.980469 260.636719 L 187.558594 333.519531 L 156.367188 260.636719 L 143.824219 260.636719 C 142.703125 260.636719 141.601562 260.671875 140.515625 260.742188 C 135.519531 261.058594 130.867188 262.097656 126.566406 263.871094 C 121.332031 266.023438 116.824219 268.976562 113.035156 272.730469 C 109.253906 276.480469 106.332031 280.929688 104.265625 286.078125 C 102.203125 291.230469 101.167969 296.757812 101.167969 302.664062 C 101.167969 308.570312 102.203125 314.078125 104.265625 319.1875 " fill-opacity="1" fill-rule="nonzero"/></g></svg>