<svg xmlns="http://www.w3.org/2000/svg" xmlns:xlink="http://www.w3.org/1999/xlink" width="190" zoomAndPan="magnify" viewBox="0 0 142.5 33.749998" height="45" preserveAspectRatio="xMidYMid meet" version="1.0"><defs><g/><clipPath id="f82efe4933"><path d="M 0.277344 0 L 59.296875 0 L 59.296875 33.5 L 0.277344 33.5 Z M 0.277344 0 " clip-rule="nonzero"/></clipPath><clipPath id="fc50c5ad49"><path d="M 135 22 L 141.726562 22 L 141.726562 30 L 135 30 Z M 135 22 " clip-rule="nonzero"/></clipPath></defs><g clip-path="url(#f82efe4933)"><path fill="#000000" d="M 38.511719 30.394531 C 38.582031 30.417969 38.65625 30.4375 38.730469 30.457031 C 38.65625 30.4375 38.582031 30.417969 38.511719 30.394531 Z M 39.613281 30.671875 C 39.648438 30.679688 39.6875 30.6875 39.722656 30.695312 C 39.6875 30.6875 39.652344 30.679688 39.613281 30.671875 Z M 38.351562 30.347656 C 38.40625 30.363281 38.457031 30.382812 38.511719 30.398438 C 38.457031 30.378906 38.402344 30.363281 38.351562 30.347656 Z M 38.148438 30.285156 C 38.214844 30.304688 38.285156 30.328125 38.351562 30.347656 C 38.285156 30.328125 38.214844 30.304688 38.148438 30.285156 Z M 39.242188 30.589844 C 39.367188 30.621094 39.488281 30.648438 39.613281 30.671875 C 39.488281 30.648438 39.367188 30.621094 39.242188 30.589844 Z M 39.136719 30.5625 C 39.175781 30.574219 39.210938 30.582031 39.242188 30.589844 C 39.207031 30.582031 39.171875 30.574219 39.136719 30.5625 Z M 38.875 30.496094 C 38.960938 30.519531 39.050781 30.542969 39.136719 30.5625 C 39.050781 30.542969 38.960938 30.519531 38.875 30.496094 Z M 38.726562 30.457031 C 38.777344 30.472656 38.824219 30.484375 38.875 30.5 C 38.828125 30.484375 38.777344 30.472656 38.726562 30.457031 Z M 37.074219 29.890625 C 37.140625 29.917969 37.207031 29.945312 37.273438 29.972656 C 37.207031 29.945312 37.140625 29.917969 37.074219 29.890625 Z M 37.074219 29.890625 C 37.027344 29.867188 36.976562 29.847656 36.929688 29.828125 C 36.976562 29.847656 37.027344 29.867188 37.074219 29.890625 Z M 37.433594 30.03125 C 37.378906 30.011719 37.328125 29.992188 37.277344 29.96875 C 37.328125 29.992188 37.378906 30.011719 37.433594 30.03125 Z M 37.628906 30.105469 C 37.5625 30.082031 37.5 30.058594 37.433594 30.03125 C 37.496094 30.054688 37.5625 30.082031 37.628906 30.105469 Z M 37.789062 30.164062 C 37.855469 30.1875 37.921875 30.210938 37.984375 30.230469 C 37.921875 30.210938 37.855469 30.1875 37.789062 30.164062 Z M 37.789062 30.164062 C 37.734375 30.144531 37.679688 30.125 37.628906 30.105469 C 37.679688 30.125 37.734375 30.144531 37.789062 30.164062 Z M 37.984375 30.230469 C 38.039062 30.25 38.09375 30.265625 38.148438 30.285156 C 38.09375 30.265625 38.039062 30.25 37.984375 30.230469 Z M 40.136719 30.769531 C 40.214844 30.78125 40.292969 30.796875 40.375 30.808594 C 40.292969 30.796875 40.214844 30.78125 40.136719 30.769531 Z M 42.097656 30.960938 C 42.054688 30.960938 42.011719 30.957031 41.96875 30.957031 C 42.011719 30.957031 42.054688 30.960938 42.097656 30.960938 Z M 41.703125 30.945312 C 41.792969 30.949219 41.878906 30.953125 41.96875 30.957031 C 41.882812 30.953125 41.792969 30.949219 41.703125 30.945312 Z M 39.992188 30.746094 C 39.902344 30.730469 39.8125 30.710938 39.722656 30.691406 C 39.8125 30.710938 39.902344 30.730469 39.992188 30.746094 Z M 33.699219 24.25 C 33.792969 24.359375 33.886719 24.464844 33.984375 24.570312 C 33.886719 24.464844 33.792969 24.359375 33.699219 24.25 Z M 42.097656 30.960938 C 42.230469 30.964844 42.363281 30.96875 42.496094 30.96875 C 42.363281 30.96875 42.230469 30.964844 42.097656 30.960938 Z M 41.3125 30.917969 C 41.390625 30.925781 41.472656 30.929688 41.550781 30.9375 C 41.472656 30.929688 41.390625 30.921875 41.3125 30.917969 Z M 34.046875 24.640625 C 34.027344 24.617188 34.003906 24.59375 33.980469 24.570312 C 34.003906 24.59375 34.027344 24.617188 34.046875 24.640625 Z M 41.550781 30.933594 C 41.601562 30.9375 41.652344 30.941406 41.703125 30.945312 C 41.652344 30.941406 41.601562 30.9375 41.550781 30.933594 Z M 36.929688 29.828125 C 36.851562 29.792969 36.773438 29.757812 36.695312 29.722656 C 36.773438 29.757812 36.851562 29.792969 36.929688 29.828125 Z M 41.3125 30.917969 C 41.257812 30.914062 41.203125 30.90625 41.152344 30.902344 C 41.203125 30.90625 41.257812 30.914062 41.3125 30.917969 Z M 40.53125 30.828125 C 40.476562 30.824219 40.425781 30.816406 40.375 30.808594 C 40.425781 30.816406 40.476562 30.824219 40.53125 30.828125 Z M 40.136719 30.769531 C 40.089844 30.761719 40.039062 30.753906 39.992188 30.746094 C 40.039062 30.753906 40.089844 30.761719 40.136719 30.769531 Z M 40.921875 30.878906 C 40.996094 30.886719 41.074219 30.894531 41.152344 30.902344 C 41.074219 30.894531 40.996094 30.886719 40.921875 30.878906 Z M 40.53125 30.828125 C 40.605469 30.839844 40.683594 30.851562 40.761719 30.859375 C 40.683594 30.851562 40.605469 30.839844 40.53125 30.828125 Z M 40.921875 30.878906 C 40.867188 30.871094 40.8125 30.867188 40.757812 30.859375 C 40.8125 30.867188 40.867188 30.871094 40.921875 30.878906 Z M 34.347656 24.953125 C 34.242188 24.847656 34.144531 24.746094 34.046875 24.640625 C 34.144531 24.746094 34.246094 24.847656 34.347656 24.953125 Z M 33.195312 27.480469 C 33.246094 27.523438 33.296875 27.566406 33.347656 27.609375 C 33.296875 27.566406 33.246094 27.523438 33.195312 27.480469 Z M 32.921875 27.234375 C 32.96875 27.28125 33.019531 27.324219 33.070312 27.371094 C 33.019531 27.324219 32.96875 27.28125 32.921875 27.234375 Z M 33.476562 27.71875 C 33.433594 27.683594 33.390625 27.648438 33.347656 27.609375 C 33.390625 27.648438 33.433594 27.683594 33.476562 27.71875 Z M 33.195312 27.480469 C 33.152344 27.445312 33.109375 27.40625 33.070312 27.371094 C 33.109375 27.40625 33.152344 27.445312 33.195312 27.480469 Z M 34.058594 28.175781 C 33.960938 28.101562 33.859375 28.023438 33.761719 27.949219 C 33.859375 28.023438 33.957031 28.101562 34.058594 28.175781 Z M 33.632812 27.84375 C 33.675781 27.878906 33.71875 27.914062 33.761719 27.949219 C 33.71875 27.914062 33.675781 27.878906 33.632812 27.84375 Z M 33.476562 27.71875 C 33.527344 27.761719 33.578125 27.804688 33.632812 27.84375 C 33.578125 27.804688 33.527344 27.761719 33.476562 27.71875 Z M 32.535156 26.867188 C 32.488281 26.820312 32.4375 26.773438 32.390625 26.722656 C 32.4375 26.773438 32.488281 26.820312 32.535156 26.867188 Z M 33.699219 24.25 Z M 34.199219 28.277344 C 34.152344 28.246094 34.105469 28.210938 34.058594 28.175781 C 34.105469 28.210938 34.152344 28.246094 34.199219 28.277344 Z M 32.652344 26.984375 C 32.703125 27.03125 32.75 27.074219 32.800781 27.121094 C 32.75 27.074219 32.703125 27.03125 32.652344 26.984375 Z M 32.652344 26.984375 C 32.613281 26.945312 32.574219 26.90625 32.535156 26.867188 C 32.574219 26.90625 32.613281 26.945312 32.652344 26.984375 Z M 32.921875 27.234375 C 32.878906 27.195312 32.839844 27.160156 32.800781 27.121094 C 32.839844 27.160156 32.878906 27.195312 32.921875 27.234375 Z M 36.695312 29.722656 C 36.632812 29.695312 36.570312 29.667969 36.507812 29.636719 C 36.570312 29.667969 36.632812 29.695312 36.695312 29.722656 Z M 35.769531 29.265625 C 35.714844 29.238281 35.660156 29.207031 35.605469 29.175781 C 35.660156 29.207031 35.714844 29.238281 35.769531 29.265625 Z M 35.929688 29.351562 C 35.878906 29.324219 35.824219 29.292969 35.769531 29.265625 C 35.824219 29.296875 35.878906 29.324219 35.929688 29.351562 Z M 35.441406 29.085938 C 35.496094 29.117188 35.550781 29.144531 35.605469 29.175781 C 35.550781 29.144531 35.496094 29.113281 35.441406 29.085938 Z M 35.441406 29.085938 C 35.390625 29.054688 35.335938 29.023438 35.285156 28.992188 C 35.335938 29.023438 35.390625 29.054688 35.441406 29.085938 Z M 35.929688 29.351562 C 35.992188 29.382812 36.050781 29.414062 36.109375 29.445312 C 36.050781 29.414062 35.992188 29.382812 35.929688 29.351562 Z M 36.507812 29.640625 C 36.425781 29.601562 36.34375 29.5625 36.261719 29.519531 C 36.34375 29.5625 36.425781 29.601562 36.507812 29.640625 Z M 36.109375 29.445312 C 36.160156 29.46875 36.210938 29.496094 36.261719 29.519531 C 36.210938 29.496094 36.160156 29.46875 36.109375 29.445312 Z M 34.96875 28.796875 C 35.019531 28.832031 35.070312 28.863281 35.121094 28.894531 C 35.070312 28.863281 35.019531 28.832031 34.96875 28.796875 Z M 35.121094 28.894531 C 35.175781 28.925781 35.230469 28.960938 35.285156 28.992188 C 35.230469 28.960938 35.175781 28.925781 35.121094 28.894531 Z M 34.660156 28.597656 C 34.605469 28.5625 34.550781 28.527344 34.5 28.488281 C 34.554688 28.527344 34.605469 28.5625 34.660156 28.597656 Z M 34.355469 28.390625 C 34.402344 28.421875 34.453125 28.457031 34.5 28.488281 C 34.449219 28.457031 34.402344 28.421875 34.355469 28.390625 Z M 34.808594 28.695312 C 34.757812 28.664062 34.707031 28.632812 34.660156 28.597656 C 34.707031 28.632812 34.757812 28.664062 34.808594 28.695312 Z M 34.199219 28.277344 C 34.25 28.316406 34.300781 28.351562 34.355469 28.390625 C 34.300781 28.351562 34.25 28.316406 34.199219 28.277344 Z M 34.96875 28.796875 C 34.914062 28.765625 34.859375 28.730469 34.808594 28.695312 C 34.859375 28.730469 34.914062 28.765625 34.96875 28.796875 Z M 17.078125 5.292969 C 15.523438 5.292969 14.015625 5.597656 12.59375 6.199219 C 11.21875 6.777344 9.988281 7.609375 8.929688 8.664062 C 8.210938 9.382812 7.59375 10.1875 7.089844 11.058594 L 6.855469 11.46875 L 9.976562 11.46875 L 10.058594 11.363281 C 11.757812 9.175781 14.320312 7.921875 17.078125 7.921875 C 20.390625 7.921875 23.285156 9.742188 24.816406 12.433594 C 25.007812 11.667969 25.246094 10.910156 25.535156 10.175781 C 25.597656 10.015625 25.65625 9.867188 25.71875 9.722656 C 25.769531 9.601562 25.820312 9.484375 25.875 9.367188 C 25.667969 9.125 25.453125 8.890625 25.226562 8.664062 C 24.167969 7.605469 22.9375 6.777344 21.5625 6.195312 C 20.144531 5.597656 18.632812 5.292969 17.078125 5.292969 Z M 4.023438 11.304688 C 6.253906 6.046875 11.375 2.648438 17.078125 2.648438 C 21.042969 2.648438 24.632812 4.285156 27.207031 6.917969 C 27.667969 6.210938 28.175781 5.535156 28.722656 4.902344 C 28.753906 4.867188 28.785156 4.832031 28.816406 4.796875 C 27.308594 3.320312 25.558594 2.160156 23.621094 1.339844 C 21.546875 0.460938 19.347656 0.0195312 17.078125 0.0195312 C 14.8125 0.0195312 12.609375 0.460938 10.539062 1.339844 C 8.539062 2.183594 6.738281 3.394531 5.199219 4.933594 C 3.65625 6.476562 2.441406 8.273438 1.597656 10.273438 C 1.484375 10.542969 1.375 10.820312 1.269531 11.105469 L 1.140625 11.46875 L 3.953125 11.46875 Z M 59.265625 15.75 L 59.25 15.492188 L 41.179688 15.492188 L 41.179688 22.097656 L 43.8125 22.097656 L 43.8125 18.125 L 51.289062 18.125 C 50.644531 22.460938 46.917969 25.691406 42.496094 25.691406 C 39.183594 25.691406 36.289062 23.871094 34.757812 21.183594 C 34.570312 21.949219 34.328125 22.703125 34.039062 23.441406 C 33.976562 23.605469 33.917969 23.75 33.855469 23.890625 C 33.808594 24.011719 33.753906 24.128906 33.699219 24.25 C 33.792969 24.359375 33.886719 24.464844 33.984375 24.570312 C 34.003906 24.59375 34.027344 24.617188 34.046875 24.640625 C 34.144531 24.746094 34.246094 24.847656 34.347656 24.953125 C 35.402344 26.007812 36.636719 26.839844 38.007812 27.417969 C 39.429688 28.019531 40.941406 28.324219 42.496094 28.324219 C 44.050781 28.324219 45.558594 28.019531 46.980469 27.417969 C 48.355469 26.839844 49.585938 26.007812 50.644531 24.953125 C 51.703125 23.894531 52.535156 22.664062 53.113281 21.292969 C 53.542969 20.277344 53.820312 19.214844 53.945312 18.125 L 56.605469 18.125 C 55.933594 25.351562 49.792969 30.96875 42.496094 30.96875 C 42.363281 30.96875 42.230469 30.964844 42.097656 30.960938 C 42.054688 30.960938 42.011719 30.957031 41.96875 30.957031 C 41.878906 30.953125 41.792969 30.949219 41.703125 30.945312 C 41.652344 30.941406 41.601562 30.9375 41.550781 30.933594 C 41.472656 30.929688 41.390625 30.921875 41.3125 30.917969 C 41.257812 30.910156 41.203125 30.90625 41.152344 30.902344 C 41.074219 30.894531 40.996094 30.886719 40.921875 30.878906 C 40.867188 30.871094 40.8125 30.867188 40.757812 30.859375 C 40.683594 30.847656 40.605469 30.839844 40.53125 30.828125 C 40.476562 30.820312 40.425781 30.8125 40.375 30.804688 C 40.292969 30.792969 40.214844 30.78125 40.136719 30.765625 C 40.089844 30.757812 40.039062 30.75 39.992188 30.742188 C 39.902344 30.726562 39.8125 30.710938 39.722656 30.691406 C 39.6875 30.683594 39.652344 30.675781 39.613281 30.667969 C 39.488281 30.644531 39.367188 30.617188 39.242188 30.589844 C 39.207031 30.578125 39.171875 30.570312 39.136719 30.5625 C 39.050781 30.539062 38.960938 30.519531 38.875 30.496094 C 38.828125 30.480469 38.777344 30.46875 38.730469 30.453125 C 38.65625 30.433594 38.582031 30.414062 38.511719 30.394531 C 38.457031 30.378906 38.40625 30.363281 38.351562 30.34375 C 38.285156 30.324219 38.214844 30.304688 38.148438 30.28125 C 38.09375 30.265625 38.039062 30.246094 37.984375 30.226562 C 37.921875 30.207031 37.855469 30.183594 37.789062 30.160156 C 37.734375 30.140625 37.679688 30.121094 37.628906 30.101562 C 37.5625 30.078125 37.496094 30.054688 37.433594 30.027344 C 37.378906 30.007812 37.328125 29.988281 37.273438 29.96875 C 37.207031 29.941406 37.140625 29.914062 37.074219 29.886719 C 37.027344 29.863281 36.976562 29.84375 36.929688 29.824219 C 36.851562 29.789062 36.773438 29.753906 36.695312 29.722656 C 36.632812 29.691406 36.570312 29.664062 36.507812 29.632812 C 36.425781 29.59375 36.34375 29.558594 36.261719 29.515625 C 36.210938 29.492188 36.160156 29.464844 36.109375 29.4375 C 36.050781 29.410156 35.992188 29.378906 35.929688 29.347656 C 35.878906 29.320312 35.824219 29.289062 35.769531 29.261719 C 35.714844 29.230469 35.660156 29.203125 35.605469 29.171875 C 35.550781 29.140625 35.496094 29.109375 35.445312 29.078125 C 35.390625 29.050781 35.335938 29.019531 35.285156 28.988281 C 35.230469 28.953125 35.175781 28.921875 35.125 28.890625 C 35.070312 28.859375 35.019531 28.824219 34.96875 28.792969 C 34.914062 28.761719 34.863281 28.726562 34.808594 28.691406 C 34.761719 28.660156 34.710938 28.628906 34.660156 28.59375 C 34.605469 28.558594 34.554688 28.523438 34.5 28.488281 C 34.453125 28.453125 34.40625 28.417969 34.355469 28.386719 C 34.304688 28.347656 34.25 28.3125 34.199219 28.273438 C 34.152344 28.242188 34.105469 28.207031 34.0625 28.171875 C 33.960938 28.097656 33.859375 28.019531 33.761719 27.945312 C 33.71875 27.910156 33.675781 27.875 33.632812 27.839844 C 33.582031 27.796875 33.527344 27.753906 33.476562 27.714844 C 33.433594 27.675781 33.390625 27.640625 33.347656 27.605469 C 33.296875 27.5625 33.246094 27.519531 33.195312 27.476562 C 33.152344 27.4375 33.113281 27.402344 33.070312 27.363281 C 33.023438 27.320312 32.972656 27.273438 32.921875 27.230469 C 32.882812 27.191406 32.839844 27.152344 32.800781 27.117188 C 32.753906 27.070312 32.703125 27.023438 32.65625 26.976562 C 32.617188 26.941406 32.578125 26.902344 32.539062 26.863281 C 32.488281 26.816406 32.441406 26.769531 32.394531 26.71875 C 32.386719 26.710938 32.378906 26.703125 32.371094 26.695312 C 31.910156 27.398438 31.402344 28.078125 30.851562 28.710938 C 30.820312 28.746094 30.789062 28.78125 30.757812 28.816406 C 32.269531 30.292969 34.015625 31.457031 35.957031 32.273438 C 38.03125 33.148438 40.230469 33.59375 42.496094 33.59375 C 44.765625 33.59375 46.964844 33.152344 49.039062 32.273438 C 51.039062 31.429688 52.835938 30.21875 54.378906 28.675781 C 55.921875 27.132812 57.132812 25.339844 57.980469 23.339844 C 58.71875 21.597656 59.152344 19.753906 59.269531 17.863281 C 59.289062 17.511719 59.300781 17.15625 59.300781 16.804688 C 59.300781 16.457031 59.289062 16.101562 59.265625 15.75 Z M 32.730469 22.929688 C 32.898438 22.507812 33.042969 22.085938 33.171875 21.65625 C 33.585938 20.285156 33.722656 18.847656 33.625 17.417969 C 33.613281 17.21875 33.605469 17.015625 33.605469 16.808594 C 33.605469 16.191406 33.667969 15.589844 33.789062 15.011719 C 34.621094 10.96875 38.210938 7.925781 42.496094 7.925781 C 45.257812 7.925781 47.816406 9.179688 49.519531 11.363281 L 49.601562 11.46875 L 52.722656 11.46875 L 52.484375 11.058594 C 51.984375 10.1875 51.363281 9.382812 50.644531 8.667969 C 49.585938 7.609375 48.355469 6.777344 46.980469 6.199219 C 45.558594 5.597656 44.050781 5.292969 42.496094 5.292969 C 40.941406 5.292969 39.429688 5.597656 38.007812 6.199219 C 36.636719 6.777344 35.402344 7.609375 34.347656 8.664062 C 33.726562 9.28125 33.1875 9.960938 32.730469 10.6875 C 32.402344 11.207031 32.117188 11.753906 31.875 12.324219 C 31.832031 12.429688 31.789062 12.535156 31.746094 12.640625 C 31.328125 13.722656 31.164062 14.886719 31.226562 16.046875 C 31.242188 16.296875 31.246094 16.550781 31.246094 16.808594 C 31.246094 17.445312 31.203125 18.070312 31.121094 18.6875 C 30.914062 20.238281 30.457031 21.714844 29.785156 23.066406 C 29.339844 23.96875 28.796875 24.820312 28.175781 25.601562 C 25.578125 28.867188 21.566406 30.964844 17.078125 30.964844 C 9.777344 30.964844 3.636719 25.347656 2.96875 18.125 L 5.625 18.125 C 5.75 19.214844 6.03125 20.277344 6.457031 21.289062 C 7.039062 22.660156 7.871094 23.894531 8.929688 24.949219 C 9.988281 26.007812 11.21875 26.835938 12.589844 27.417969 C 14.011719 28.019531 15.523438 28.324219 17.078125 28.324219 C 18.632812 28.324219 20.144531 28.019531 21.5625 27.417969 C 22.9375 26.835938 24.167969 26.007812 25.226562 24.949219 C 25.84375 24.332031 26.382812 23.65625 26.84375 22.925781 C 27.167969 22.40625 27.457031 21.863281 27.695312 21.289062 C 27.726562 21.222656 27.753906 21.152344 27.78125 21.085938 C 28.226562 19.96875 28.410156 18.769531 28.34375 17.566406 C 28.332031 17.316406 28.324219 17.0625 28.324219 16.808594 C 28.324219 16.167969 28.367188 15.542969 28.449219 14.925781 C 28.65625 13.375 29.117188 11.902344 29.785156 10.546875 C 30.234375 9.644531 30.773438 8.796875 31.398438 8.011719 C 33.996094 4.746094 38.003906 2.648438 42.496094 2.648438 C 48.195312 2.648438 53.320312 6.046875 55.550781 11.300781 L 55.621094 11.46875 L 58.4375 11.46875 L 58.304688 11.101562 C 58.199219 10.820312 58.089844 10.539062 57.976562 10.269531 C 57.132812 8.269531 55.917969 6.476562 54.375 4.933594 C 52.835938 3.394531 51.039062 2.183594 49.035156 1.339844 C 46.964844 0.460938 44.761719 0.0195312 42.496094 0.0195312 C 40.226562 0.0195312 38.027344 0.460938 35.953125 1.339844 C 33.953125 2.183594 32.15625 3.394531 30.613281 4.9375 C 30.328125 5.222656 30.050781 5.519531 29.789062 5.824219 C 29.1875 6.511719 28.652344 7.242188 28.175781 8.015625 C 27.734375 8.734375 27.34375 9.488281 27.011719 10.273438 C 26.953125 10.410156 26.898438 10.550781 26.84375 10.691406 C 26.679688 11.109375 26.53125 11.53125 26.402344 11.960938 C 25.988281 13.332031 25.851562 14.769531 25.949219 16.199219 C 25.960938 16.402344 25.96875 16.605469 25.96875 16.808594 C 25.96875 17.425781 25.90625 18.027344 25.785156 18.605469 C 24.953125 22.648438 21.363281 25.695312 17.078125 25.695312 C 12.65625 25.695312 8.929688 22.460938 8.285156 18.125 L 15.761719 18.125 L 15.761719 22.101562 L 18.394531 22.101562 L 18.394531 15.492188 L 0.324219 15.492188 L 0.308594 15.75 C 0.289062 16.101562 0.277344 16.460938 0.277344 16.808594 C 0.277344 17.164062 0.289062 17.519531 0.308594 17.867188 C 0.425781 19.757812 0.859375 21.601562 1.597656 23.34375 C 2.445312 25.34375 3.65625 27.140625 5.199219 28.679688 C 6.742188 30.222656 8.539062 31.433594 10.539062 32.277344 C 12.613281 33.15625 14.8125 33.601562 17.082031 33.601562 C 19.347656 33.601562 21.546875 33.15625 23.621094 32.277344 C 25.621094 31.433594 27.417969 30.222656 28.960938 28.679688 C 29.25 28.394531 29.523438 28.097656 29.789062 27.796875 C 30.386719 27.105469 30.925781 26.375 31.398438 25.601562 C 31.84375 24.882812 32.230469 24.128906 32.5625 23.34375 C 32.621094 23.207031 32.675781 23.066406 32.730469 22.929688 Z M 32.730469 22.929688 " fill-opacity="1" fill-rule="nonzero"/></g><g fill="#000000" fill-opacity="1"><g transform="translate(62.394924, 11.762424)"><g><path d="M 6.226562 -9.722656 C 5.96875 -9.75 5.710938 -9.667969 5.4375 -9.667969 C 5.070312 -9.679688 4.71875 -9.613281 4.378906 -9.503906 C 4.023438 -9.394531 3.671875 -9.246094 3.332031 -9.097656 C 2.855469 -8.90625 2.476562 -8.59375 2.082031 -8.28125 C 1.984375 -8.199219 1.875 -8.117188 1.808594 -8.007812 C 1.671875 -7.820312 1.347656 -7.410156 1.265625 -7.246094 C 0.980469 -6.59375 0.882812 -6.484375 0.761719 -6.117188 C 0.652344 -5.765625 0.652344 -5.4375 0.625 -5.085938 C 0.597656 -4.71875 0.652344 -3.890625 0.746094 -3.46875 C 0.871094 -2.894531 1.128906 -2.269531 1.523438 -1.769531 C 1.714844 -1.523438 1.875 -1.265625 2.148438 -1.0625 C 2.367188 -0.898438 2.554688 -0.679688 2.828125 -0.558594 C 3.019531 -0.460938 3.195312 -0.339844 3.398438 -0.273438 C 3.589844 -0.203125 3.792969 -0.175781 3.96875 -0.109375 C 4.433594 0.0546875 4.949219 0.164062 5.4375 0.191406 C 5.546875 0.191406 5.65625 0.148438 5.75 0.164062 C 6.171875 0.230469 6.59375 0.175781 7.003906 0.109375 C 7.613281 0.0117188 8.199219 -0.148438 8.742188 -0.449219 C 8.878906 -0.515625 9.015625 -0.613281 9.164062 -0.652344 C 9.3125 -0.40625 9.492188 -0.203125 9.601562 0.0546875 C 9.941406 0.0820312 10.347656 0 10.660156 0.0664062 C 10.726562 0.0390625 10.714844 -0.175781 10.714844 -0.3125 C 10.699219 -0.40625 10.6875 -0.515625 10.699219 -0.625 C 10.742188 -1.128906 10.6875 -1.632812 10.714844 -2.136719 C 10.726562 -2.5 10.648438 -2.855469 10.648438 -3.207031 C 10.660156 -3.710938 10.648438 -4.203125 10.648438 -4.703125 C 10.648438 -4.757812 10.660156 -4.8125 10.605469 -4.839844 C 10.265625 -4.800781 9.941406 -4.839844 9.601562 -4.8125 C 9.382812 -4.800781 9.164062 -4.773438 8.933594 -4.800781 C 8.605469 -4.839844 8.265625 -4.71875 7.941406 -4.757812 C 7.574219 -4.785156 7.191406 -4.757812 6.824219 -4.785156 C 6.664062 -4.785156 6.511719 -4.785156 6.324219 -4.757812 C 6.28125 -4.363281 6.363281 -4.132812 6.296875 -3.753906 C 6.324219 -3.699219 6.308594 -3.535156 6.390625 -3.535156 L 7.355469 -3.535156 L 7.355469 -1.414062 C 7.113281 -1.320312 6.839844 -1.265625 6.582031 -1.292969 C 6.335938 -1.332031 6.078125 -1.359375 5.847656 -1.523438 C 5.671875 -1.644531 5.519531 -1.769531 5.371094 -1.945312 C 5.234375 -2.109375 5.097656 -2.257812 4.976562 -2.488281 C 4.757812 -2.867188 4.648438 -3.25 4.636719 -3.304688 C 4.515625 -3.683594 4.488281 -4.09375 4.460938 -4.472656 C 4.433594 -4.867188 4.417969 -5.25 4.488281 -5.644531 C 4.542969 -5.929688 4.570312 -6.214844 4.664062 -6.5 C 4.8125 -6.960938 5.097656 -7.328125 5.425781 -7.667969 C 5.65625 -7.914062 5.957031 -8.089844 6.269531 -8.210938 C 6.554688 -8.335938 6.851562 -8.347656 7.179688 -8.28125 C 7.503906 -8.199219 7.804688 -8.132812 8.050781 -7.886719 C 8.292969 -7.640625 8.445312 -7.355469 8.550781 -6.988281 C 8.550781 -6.933594 9.625 -7.015625 10.128906 -6.988281 C 10.128906 -7.371094 10.035156 -7.667969 9.804688 -8.089844 C 9.722656 -8.253906 9.640625 -8.402344 9.503906 -8.539062 C 9.382812 -8.675781 9.234375 -8.769531 9.097656 -8.90625 C 8.867188 -9.152344 8.566406 -9.285156 8.253906 -9.421875 C 7.613281 -9.679688 6.921875 -9.667969 6.226562 -9.722656 Z M 6.226562 -9.722656 "/></g></g></g><g fill="#000000" fill-opacity="1"><g transform="translate(73.951577, 11.762424)"><g><path d="M 5.546875 -7.300781 C 4.964844 -7.316406 4.378906 -7.300781 3.792969 -7.261719 C 3.019531 -7.191406 2.269531 -7.003906 1.550781 -6.71875 C 1.414062 -6.664062 1.25 -6.621094 1.167969 -6.417969 C 1.414062 -5.996094 1.742188 -5.289062 1.890625 -5.195312 C 1.929688 -5.152344 2.160156 -5.304688 2.296875 -5.371094 C 2.664062 -5.574219 2.910156 -5.601562 3.289062 -5.699219 C 3.820312 -5.832031 4.296875 -5.914062 4.839844 -5.722656 C 5.304688 -5.5625 5.574219 -5.207031 5.519531 -4.703125 C 5.425781 -4.675781 5.261719 -4.71875 5.167969 -4.703125 C 4.921875 -4.691406 4.691406 -4.730469 4.445312 -4.730469 C 3.78125 -4.757812 3.113281 -4.675781 2.476562 -4.5 C 1.835938 -4.324219 1.320312 -3.984375 0.980469 -3.414062 C 0.625 -2.800781 0.53125 -2.160156 0.679688 -1.480469 C 0.84375 -0.761719 1.304688 -0.285156 1.972656 0 C 2.570312 0.246094 3.207031 0.230469 3.847656 0.148438 C 4.515625 0.0546875 5.125 -0.175781 5.65625 -0.625 C 5.710938 -0.667969 5.75 -0.71875 5.832031 -0.71875 C 6.132812 -0.570312 6.269531 -0.246094 6.527344 0.0117188 C 7.246094 0.0117188 7.96875 -0.0664062 8.675781 0 C 8.757812 -0.109375 8.757812 -0.191406 8.742188 -0.285156 C 8.6875 -0.84375 8.703125 -1.453125 8.714844 -2.011719 C 8.730469 -2.867188 8.714844 -3.726562 8.703125 -4.582031 C 8.6875 -5.058594 8.550781 -5.507812 8.253906 -5.902344 C 8.105469 -6.089844 7.925781 -6.253906 7.738281 -6.40625 C 7.113281 -6.933594 6.390625 -7.273438 5.546875 -7.300781 Z M 5.574219 -3.398438 C 5.574219 -2.816406 5.535156 -2.269531 5.589844 -1.742188 C 5.4375 -1.550781 5.261719 -1.414062 5.058594 -1.332031 C 4.609375 -1.128906 3.996094 -1.453125 3.929688 -1.957031 C 3.847656 -2.664062 4.121094 -3.183594 4.921875 -3.359375 C 5.125 -3.398438 5.34375 -3.398438 5.574219 -3.398438 Z M 5.574219 -3.398438 "/></g></g></g><g fill="#000000" fill-opacity="1"><g transform="translate(83.536811, 11.762424)"><g><path d="M 11.433594 -7.261719 C 10.648438 -7.125 10.019531 -6.839844 9.355469 -6.351562 C 9.234375 -6.253906 9.097656 -6.160156 8.933594 -6.105469 C 8.824219 -6.28125 8.742188 -6.445312 8.621094 -6.582031 C 8.144531 -7.097656 7.492188 -7.207031 6.867188 -7.261719 C 5.957031 -7.355469 5.222656 -7.113281 4.433594 -6.621094 C 4.230469 -6.5 4.050781 -6.335938 3.820312 -6.253906 C 3.589844 -6.527344 3.480469 -6.878906 3.167969 -7.097656 C 2.816406 -7.097656 2.449219 -7.085938 2.066406 -7.085938 C 1.699219 -7.070312 1.320312 -7.136719 0.898438 -7.070312 C 0.800781 -6.472656 0.910156 -5.886719 0.871094 -5.304688 C 0.828125 -4.730469 0.871094 -4.148438 0.871094 -3.574219 C 0.871094 -2.976562 0.871094 -2.394531 0.84375 -1.808594 C 0.800781 -1.222656 0.816406 -0.640625 0.84375 -0.0390625 C 0.882812 -0.0117188 0.9375 0.0273438 0.992188 0.0390625 C 2.011719 0.0664062 2.992188 0 4.050781 -0.0273438 C 4.132812 -1.6875 3.984375 -3.332031 4.078125 -4.988281 C 4.121094 -5.140625 4.230469 -5.207031 4.324219 -5.289062 C 4.527344 -5.453125 4.625 -5.507812 4.882812 -5.589844 C 5.425781 -5.75 5.886719 -5.617188 5.886719 -4.921875 C 5.902344 -4.050781 5.96875 -3.34375 5.902344 -2.324219 C 5.902344 -1.632812 5.886719 -0.9375 5.875 -0.246094 C 5.875 -0.148438 5.859375 -0.0546875 5.96875 0.0390625 C 6.988281 -0.0820312 8.050781 0.0546875 9.109375 -0.0117188 C 9.179688 -0.09375 9.191406 -0.203125 9.179688 -0.328125 C 9.164062 -0.460938 9.152344 -0.597656 9.152344 -0.71875 C 9.136719 -1.605469 9.136719 -2.488281 9.125 -3.359375 C 9.109375 -3.890625 9.164062 -4.40625 9.207031 -4.976562 C 9.394531 -5.234375 9.574219 -5.277344 9.789062 -5.453125 C 9.96875 -5.601562 10.089844 -5.628906 10.320312 -5.644531 C 10.621094 -5.644531 10.933594 -5.382812 10.960938 -5.003906 C 10.972656 -4.730469 10.972656 -4.445312 10.972656 -4.175781 C 10.972656 -3.441406 10.960938 -2.707031 10.972656 -1.972656 C 10.972656 -1.386719 10.972656 -0.800781 10.988281 -0.203125 C 10.988281 -0.109375 11.015625 -0.0273438 11.136719 0.0546875 C 12.140625 0.0273438 13.175781 0.0820312 14.210938 -0.0117188 C 14.316406 -0.136719 14.304688 -0.257812 14.304688 -0.378906 C 14.289062 -0.695312 14.277344 -1.007812 14.277344 -1.304688 C 14.277344 -2.160156 14.261719 -3.003906 14.304688 -3.847656 C 14.332031 -4.472656 14.316406 -5.085938 14.140625 -5.699219 C 14.019531 -6.117188 13.84375 -6.527344 13.460938 -6.8125 C 12.863281 -7.261719 12.15625 -7.398438 11.433594 -7.261719 Z M 11.433594 -7.261719 "/></g></g></g><g fill="#000000" fill-opacity="1"><g transform="translate(98.696435, 11.762424)"><g><path d="M 1.847656 -9.925781 C 1.425781 -9.789062 1.074219 -9.613281 0.910156 -9.164062 C 0.855469 -9 0.816406 -8.839844 0.855469 -8.6875 C 0.964844 -7.953125 1.480469 -7.667969 2.09375 -7.628906 C 2.3125 -7.628906 2.515625 -7.601562 2.71875 -7.613281 C 3.277344 -7.65625 3.753906 -7.84375 4.039062 -8.402344 C 4.160156 -8.648438 4.175781 -9.164062 3.941406 -9.421875 C 3.753906 -9.625 3.535156 -9.804688 3.25 -9.914062 C 2.773438 -10.101562 2.3125 -10.074219 1.847656 -9.925781 Z M 4.011719 -7.164062 C 2.976562 -7.136719 1.863281 -7.191406 0.925781 -7.125 C 0.828125 -7.03125 0.816406 -6.949219 0.816406 -6.867188 C 0.828125 -6.664062 0.828125 -6.363281 0.84375 -6.171875 C 0.898438 -5.617188 0.871094 -5.140625 0.871094 -4.597656 C 0.871094 -4.050781 0.816406 -3.507812 0.816406 -2.949219 C 0.828125 -2.214844 0.882812 -1.496094 0.871094 -0.761719 C 0.871094 -0.515625 0.84375 -0.285156 0.882812 -0.0117188 C 1.929688 0.0117188 2.976562 0.0117188 4.011719 -0.0273438 C 4.132812 -0.148438 4.121094 -0.257812 4.105469 -0.367188 C 4.078125 -0.558594 4.066406 -0.734375 4.078125 -0.925781 C 4.078125 -1.589844 4.105469 -2.230469 4.105469 -2.882812 C 4.09375 -3.550781 4.09375 -4.214844 4.09375 -4.882812 C 4.09375 -5.464844 4.121094 -6.144531 4.121094 -6.730469 C 4.132812 -6.867188 4.121094 -7.015625 4.011719 -7.164062 Z M 4.011719 -7.164062 "/></g></g></g><g fill="#000000" fill-opacity="1"><g transform="translate(103.604613, 11.762424)"><g><path d="M 7.519531 -7.207031 C 6.609375 -7.425781 5.765625 -7.21875 4.921875 -6.90625 C 4.527344 -6.757812 4.1875 -6.539062 3.835938 -6.296875 C 3.589844 -6.5 3.46875 -6.867188 3.289062 -7.097656 C 2.242188 -7.21875 1.644531 -7.113281 0.828125 -7.097656 C 0.800781 -4.746094 0.816406 -2.339844 0.898438 0 L 3.683594 0 C 3.863281 0 4.039062 0.0117188 4.1875 -0.121094 C 4.203125 -0.707031 4.148438 -1.265625 4.132812 -1.835938 C 4.105469 -2.71875 4.121094 -3.589844 4.121094 -4.472656 C 4.121094 -4.675781 4.160156 -4.882812 4.214844 -5.058594 C 4.527344 -5.289062 4.800781 -5.546875 5.152344 -5.683594 C 5.710938 -5.886719 6.308594 -5.535156 6.226562 -4.910156 C 6.226562 -4.488281 6.214844 -4.132812 6.242188 -3.738281 C 6.28125 -3.183594 6.269531 -2.609375 6.269531 -2.039062 C 6.269531 -1.523438 6.28125 -0.992188 6.28125 -0.460938 C 6.28125 -0.339844 6.253906 -0.191406 6.324219 -0.0546875 C 6.445312 0.0664062 6.566406 0.0664062 6.71875 0.0664062 C 7.058594 0.0390625 7.34375 0.0273438 7.683594 0.0273438 C 8.265625 0.0117188 8.851562 0.0117188 9.4375 0 C 9.503906 0 9.558594 0 9.613281 -0.0664062 C 9.585938 -1.113281 9.585938 -2.175781 9.546875 -3.234375 C 9.519531 -3.875 9.558594 -4.515625 9.519531 -5.152344 C 9.464844 -6.039062 8.972656 -6.609375 8.238281 -7.015625 C 8.007812 -7.136719 7.765625 -7.152344 7.519531 -7.207031 Z M 7.519531 -7.207031 "/></g></g></g><g fill="#000000" fill-opacity="1"><g transform="translate(114.059995, 11.762424)"><g><path d="M 4.011719 -7.34375 C 3.753906 -7.34375 3.496094 -7.273438 3.25 -7.207031 C 2.40625 -6.976562 1.875 -6.664062 1.425781 -5.984375 C 1.15625 -5.601562 0.980469 -5.25 0.828125 -4.8125 C 0.613281 -4.203125 0.570312 -3.574219 0.652344 -2.9375 C 0.707031 -2.460938 0.789062 -1.972656 0.980469 -1.496094 C 1.101562 -1.222656 1.453125 -0.570312 1.699219 -0.476562 C 1.972656 -0.203125 2.285156 -0.0664062 2.664062 0.0117188 C 3.113281 0.121094 3.574219 0.191406 4.050781 0.175781 C 4.730469 0.175781 5.453125 0.0390625 6.039062 -0.339844 C 6.253906 -0.476562 6.390625 -0.503906 6.636719 -0.679688 C 6.636719 -0.460938 6.648438 -0.300781 6.636719 -0.121094 C 6.554688 0.71875 6.144531 1.074219 5.289062 1.277344 C 4.867188 1.375 4.363281 1.375 3.957031 1.332031 C 3.359375 1.25 2.921875 1.183594 2.394531 0.898438 C 2.1875 0.789062 2.027344 0.640625 1.808594 0.585938 C 1.671875 0.613281 1.617188 0.707031 1.550781 0.789062 C 1.402344 0.980469 1.15625 1.320312 1.035156 1.523438 C 0.898438 1.742188 0.980469 1.820312 1.25 2.039062 C 1.578125 2.257812 1.78125 2.339844 2.175781 2.5 C 3.398438 3.003906 4.894531 2.921875 6.1875 2.816406 C 8.363281 2.542969 9.21875 1.847656 9.546875 1.15625 C 9.925781 0.476562 9.953125 0 9.980469 -0.746094 C 9.980469 -1.085938 9.96875 -1.425781 9.96875 -1.769531 C 9.941406 -2.378906 10.046875 -2.976562 10.007812 -3.574219 C 9.941406 -4.597656 10.019531 -5.628906 10.035156 -6.648438 C 10.035156 -7.042969 9.96875 -7.136719 9.574219 -7.152344 C 9.136719 -7.164062 8.703125 -7.113281 8.28125 -7.085938 C 8.0625 -7.070312 7.859375 -7.125 7.640625 -7.070312 C 7.410156 -6.851562 7.164062 -6.621094 6.921875 -6.417969 C 6.785156 -6.457031 6.691406 -6.554688 6.59375 -6.621094 C 6.214844 -6.949219 5.75 -7.136719 5.289062 -7.246094 C 4.882812 -7.34375 4.445312 -7.328125 4.011719 -7.34375 Z M 5.179688 -5.628906 C 5.628906 -5.792969 6.0625 -5.738281 6.417969 -5.382812 C 6.566406 -5.234375 6.664062 -5.085938 6.636719 -4.855469 C 6.621094 -4.703125 6.621094 -4.542969 6.621094 -4.390625 L 6.59375 -3.03125 C 6.59375 -2.800781 6.621094 -2.570312 6.621094 -2.339844 C 6.621094 -2.136719 6.566406 -1.972656 6.390625 -1.835938 C 6.171875 -1.660156 5.984375 -1.46875 5.699219 -1.386719 C 5.304688 -1.292969 5.003906 -1.425781 4.757812 -1.714844 C 4.5 -2 4.378906 -2.339844 4.296875 -2.691406 C 4.148438 -3.277344 4.078125 -3.753906 4.214844 -4.351562 C 4.351562 -4.910156 4.597656 -5.410156 5.179688 -5.628906 Z M 5.179688 -5.628906 "/></g></g></g><g fill="#000000" fill-opacity="1"><g transform="translate(104.460744, 29.932587)"><g><path d="M 6.226562 -9.722656 C 5.96875 -9.75 5.710938 -9.667969 5.4375 -9.667969 C 5.070312 -9.679688 4.71875 -9.613281 4.378906 -9.503906 C 4.023438 -9.394531 3.671875 -9.246094 3.332031 -9.097656 C 2.855469 -8.90625 2.476562 -8.59375 2.082031 -8.28125 C 1.984375 -8.199219 1.875 -8.117188 1.808594 -8.007812 C 1.671875 -7.820312 1.347656 -7.410156 1.265625 -7.246094 C 0.980469 -6.59375 0.882812 -6.484375 0.761719 -6.117188 C 0.652344 -5.765625 0.652344 -5.4375 0.625 -5.085938 C 0.597656 -4.71875 0.652344 -3.890625 0.746094 -3.46875 C 0.871094 -2.894531 1.128906 -2.269531 1.523438 -1.769531 C 1.714844 -1.523438 1.875 -1.265625 2.148438 -1.0625 C 2.367188 -0.898438 2.554688 -0.679688 2.828125 -0.558594 C 3.019531 -0.460938 3.195312 -0.339844 3.398438 -0.273438 C 3.589844 -0.203125 3.792969 -0.175781 3.96875 -0.109375 C 4.433594 0.0546875 4.949219 0.164062 5.4375 0.191406 C 5.546875 0.191406 5.65625 0.148438 5.75 0.164062 C 6.171875 0.230469 6.59375 0.175781 7.003906 0.109375 C 7.613281 0.0117188 8.199219 -0.148438 8.742188 -0.449219 C 8.878906 -0.515625 9.015625 -0.613281 9.164062 -0.652344 C 9.3125 -0.40625 9.492188 -0.203125 9.601562 0.0546875 C 9.941406 0.0820312 10.347656 0 10.660156 0.0664062 C 10.726562 0.0390625 10.714844 -0.175781 10.714844 -0.3125 C 10.699219 -0.40625 10.6875 -0.515625 10.699219 -0.625 C 10.742188 -1.128906 10.6875 -1.632812 10.714844 -2.136719 C 10.726562 -2.5 10.648438 -2.855469 10.648438 -3.207031 C 10.660156 -3.710938 10.648438 -4.203125 10.648438 -4.703125 C 10.648438 -4.757812 10.660156 -4.8125 10.605469 -4.839844 C 10.265625 -4.800781 9.941406 -4.839844 9.601562 -4.8125 C 9.382812 -4.800781 9.164062 -4.773438 8.933594 -4.800781 C 8.605469 -4.839844 8.265625 -4.71875 7.941406 -4.757812 C 7.574219 -4.785156 7.191406 -4.757812 6.824219 -4.785156 C 6.664062 -4.785156 6.511719 -4.785156 6.324219 -4.757812 C 6.28125 -4.363281 6.363281 -4.132812 6.296875 -3.753906 C 6.324219 -3.699219 6.308594 -3.535156 6.390625 -3.535156 L 7.355469 -3.535156 L 7.355469 -1.414062 C 7.113281 -1.320312 6.839844 -1.265625 6.582031 -1.292969 C 6.335938 -1.332031 6.078125 -1.359375 5.847656 -1.523438 C 5.671875 -1.644531 5.519531 -1.769531 5.371094 -1.945312 C 5.234375 -2.109375 5.097656 -2.257812 4.976562 -2.488281 C 4.757812 -2.867188 4.648438 -3.25 4.636719 -3.304688 C 4.515625 -3.683594 4.488281 -4.09375 4.460938 -4.472656 C 4.433594 -4.867188 4.417969 -5.25 4.488281 -5.644531 C 4.542969 -5.929688 4.570312 -6.214844 4.664062 -6.5 C 4.8125 -6.960938 5.097656 -7.328125 5.425781 -7.667969 C 5.65625 -7.914062 5.957031 -8.089844 6.269531 -8.210938 C 6.554688 -8.335938 6.851562 -8.347656 7.179688 -8.28125 C 7.503906 -8.199219 7.804688 -8.132812 8.050781 -7.886719 C 8.292969 -7.640625 8.445312 -7.355469 8.550781 -6.988281 C 8.550781 -6.933594 9.625 -7.015625 10.128906 -6.988281 C 10.128906 -7.371094 10.035156 -7.667969 9.804688 -8.089844 C 9.722656 -8.253906 9.640625 -8.402344 9.503906 -8.539062 C 9.382812 -8.675781 9.234375 -8.769531 9.097656 -8.90625 C 8.867188 -9.152344 8.566406 -9.285156 8.253906 -9.421875 C 7.613281 -9.679688 6.921875 -9.667969 6.226562 -9.722656 Z M 6.226562 -9.722656 "/></g></g></g><g fill="#000000" fill-opacity="1"><g transform="translate(116.017398, 29.932587)"><g><path d="M 5.140625 -7.328125 C 4.582031 -7.382812 4.050781 -7.328125 3.496094 -7.191406 C 3.046875 -7.085938 2.867188 -6.976562 2.527344 -6.8125 C 2.121094 -6.621094 1.808594 -6.351562 1.535156 -6.011719 C 1.046875 -5.398438 0.773438 -4.703125 0.652344 -3.957031 C 0.558594 -3.359375 0.625 -2.761719 0.816406 -2.175781 C 1.019531 -1.589844 1.386719 -1.140625 1.847656 -0.789062 C 2.296875 -0.449219 2.679688 -0.21875 3.222656 -0.0546875 C 3.65625 0.0820312 3.941406 0.0820312 4.378906 0.148438 C 4.828125 0.230469 5.289062 0.203125 5.722656 0.148438 C 6.445312 0.09375 6.867188 -0.0390625 7.503906 -0.378906 C 7.832031 -0.558594 8.171875 -0.855469 8.445312 -1.15625 C 8.199219 -1.660156 7.898438 -2.242188 7.804688 -2.175781 C 7.65625 -2.109375 7.53125 -1.929688 7.410156 -1.835938 C 6.949219 -1.523438 6.703125 -1.332031 6.132812 -1.277344 C 5.671875 -1.222656 5.222656 -1.25 4.8125 -1.46875 C 4.296875 -1.726562 3.984375 -2.351562 4.066406 -2.910156 C 4.1875 -2.921875 4.324219 -2.964844 4.445312 -2.964844 C 5.113281 -2.921875 5.765625 -2.976562 6.429688 -2.9375 C 7.164062 -2.894531 7.53125 -2.964844 8.265625 -2.964844 C 8.363281 -2.964844 8.527344 -2.921875 8.539062 -3.019531 C 8.550781 -3.058594 8.566406 -3.140625 8.566406 -3.183594 C 8.605469 -4.050781 8.550781 -4.730469 8.160156 -5.464844 C 8.050781 -5.65625 7.96875 -5.875 7.804688 -6.039062 C 7.003906 -6.824219 6.269531 -7.21875 5.140625 -7.328125 Z M 5.316406 -5.683594 C 5.371094 -5.628906 5.410156 -5.574219 5.4375 -5.507812 C 5.5625 -5.085938 5.644531 -4.664062 5.519531 -4.1875 C 5.003906 -4.214844 4.527344 -4.132812 4.011719 -4.1875 C 4.039062 -4.664062 4.09375 -5.125 4.363281 -5.535156 C 4.582031 -5.875 5.042969 -5.941406 5.316406 -5.683594 Z M 5.316406 -5.683594 "/></g></g></g><g fill="#000000" fill-opacity="1"><g transform="translate(125.208344, 29.932587)"><g><path d="M 5.546875 -7.300781 C 4.964844 -7.316406 4.378906 -7.300781 3.792969 -7.261719 C 3.019531 -7.191406 2.269531 -7.003906 1.550781 -6.71875 C 1.414062 -6.664062 1.25 -6.621094 1.167969 -6.417969 C 1.414062 -5.996094 1.742188 -5.289062 1.890625 -5.195312 C 1.929688 -5.152344 2.160156 -5.304688 2.296875 -5.371094 C 2.664062 -5.574219 2.910156 -5.601562 3.289062 -5.699219 C 3.820312 -5.832031 4.296875 -5.914062 4.839844 -5.722656 C 5.304688 -5.5625 5.574219 -5.207031 5.519531 -4.703125 C 5.425781 -4.675781 5.261719 -4.71875 5.167969 -4.703125 C 4.921875 -4.691406 4.691406 -4.730469 4.445312 -4.730469 C 3.78125 -4.757812 3.113281 -4.675781 2.476562 -4.5 C 1.835938 -4.324219 1.320312 -3.984375 0.980469 -3.414062 C 0.625 -2.800781 0.53125 -2.160156 0.679688 -1.480469 C 0.84375 -0.761719 1.304688 -0.285156 1.972656 0 C 2.570312 0.246094 3.207031 0.230469 3.847656 0.148438 C 4.515625 0.0546875 5.125 -0.175781 5.65625 -0.625 C 5.710938 -0.667969 5.75 -0.71875 5.832031 -0.71875 C 6.132812 -0.570312 6.269531 -0.246094 6.527344 0.0117188 C 7.246094 0.0117188 7.96875 -0.0664062 8.675781 0 C 8.757812 -0.109375 8.757812 -0.191406 8.742188 -0.285156 C 8.6875 -0.84375 8.703125 -1.453125 8.714844 -2.011719 C 8.730469 -2.867188 8.714844 -3.726562 8.703125 -4.582031 C 8.6875 -5.058594 8.550781 -5.507812 8.253906 -5.902344 C 8.105469 -6.089844 7.925781 -6.253906 7.738281 -6.40625 C 7.113281 -6.933594 6.390625 -7.273438 5.546875 -7.300781 Z M 5.574219 -3.398438 C 5.574219 -2.816406 5.535156 -2.269531 5.589844 -1.742188 C 5.4375 -1.550781 5.261719 -1.414062 5.058594 -1.332031 C 4.609375 -1.128906 3.996094 -1.453125 3.929688 -1.957031 C 3.847656 -2.664062 4.121094 -3.183594 4.921875 -3.359375 C 5.125 -3.398438 5.34375 -3.398438 5.574219 -3.398438 Z M 5.574219 -3.398438 "/></g></g></g><g clip-path="url(#fc50c5ad49)"><g fill="#000000" fill-opacity="1"><g transform="translate(134.793578, 29.932587)"><g><path d="M 6.8125 -7.207031 C 5.535156 -7.328125 4.746094 -6.933594 3.863281 -6.089844 C 3.617188 -6.40625 3.507812 -6.8125 3.234375 -7.070312 C 3.25 -7.152344 1.320312 -7.097656 0.816406 -7.042969 C 0.925781 -4.691406 0.992188 -2.324219 0.964844 -0.0390625 C 1.074219 0.0546875 1.15625 0.0390625 1.238281 0.0273438 C 1.589844 0.0117188 1.945312 0.0117188 2.296875 -0.0117188 C 2.789062 -0.0664062 3.277344 -0.0273438 3.765625 -0.0390625 C 4.023438 -0.0390625 4.078125 -0.09375 4.105469 -0.355469 L 4.105469 -0.570312 C 4.09375 -0.789062 4.078125 -1.019531 4.09375 -1.238281 C 4.121094 -2.394531 4.066406 -3.414062 4.09375 -4.570312 C 4.148438 -4.664062 4.242188 -4.71875 4.324219 -4.800781 C 4.867188 -5.261719 5.34375 -5.289062 5.957031 -5.234375 C 6.199219 -5.207031 6.445312 -5.125 6.648438 -4.976562 C 6.71875 -4.921875 6.785156 -4.910156 6.867188 -4.976562 C 6.949219 -5.195312 6.894531 -5.4375 6.894531 -5.683594 C 6.90625 -5.914062 6.90625 -6.214844 6.894531 -6.445312 C 6.878906 -6.691406 6.90625 -6.90625 6.8125 -7.207031 Z M 6.8125 -7.207031 "/></g></g></g></g></svg>